<svg xmlns="http://www.w3.org/2000/svg" viewBox="0 0 229.7 331.53"><defs><style>.cls-1,.cls-3{fill:#fff;}.cls-2{fill:#ffd405;fill-rule:evenodd;}.cls-3{font-size:66.71px;font-family:CenturyGothic, Century Gothic;}</style></defs><g id="Layer_2" data-name="Layer 2"><g id="Layer_1-2" data-name="Layer 1"><path class="cls-1" d="M58.82,162.68A101.42,101.42,0,0,0,79.2,132.91C90,108.7,97.29,65.7,73.57,44.94c-4.08-3.57-13-9.91-29.4-11.17A59.88,59.88,0,0,1,54.81,29c23.69-8.06,62.6-4.63,77.5,21.89,16.4,29.17-8.31,64.84-11,68.67-5.9,8.25-12.41,13.63-18.27,18.47A142.7,142.7,0,0,1,58.82,162.68Z"/><circle class="cls-1" cx="135.94" cy="20.25" r="20.25"/><path class="cls-2" d="M197.25,17.32a.56.56,0,0,0-.2.57C197.1,17.7,197.32,17.56,197.25,17.32Z"/><path class="cls-2" d="M197.46,18c0,.21-.26.34-.2.57C197.35,18.35,197.58,18.22,197.46,18Z"/><path class="cls-2" d="M196.39,19.28c-.14.18,0,.23-.09.54.13-.07.14-.19.21-.28S196.41,19.44,196.39,19.28Z"/><path class="cls-2" d="M191.6,24l-.22.2c.08.17,0,.26,0,.43A.58.58,0,0,0,191.6,24Z"/><path class="cls-2" d="M197.11,19.05c-.07-.14-.31.26-.23.41s.09-.14.27-.26C197.1,19.17,197.05,19.13,197.11,19.05Z"/><path class="cls-2" d="M191.24,24.87c-.07.24-.2.21-.33.3.08.14.22.13.39,0Z"/><path class="cls-2" d="M195,22.56c-.1-.12-.28.31-.15.51C195.1,23,194.86,22.68,195,22.56Z"/><path class="cls-2" d="M190.18,27.15c0,.09,0,.28-.09.17-.12.09,0,.29,0,.43s-.28.24-.42.47c.28.1.11.52.09.89.07-.19.09-.39.3-.52-.2-.07-.08-.15-.09-.46a.22.22,0,0,0,.18-.07.56.56,0,0,1,.16-.5C190.3,27.36,190.26,27.18,190.18,27.15Z"/><path class="cls-2" d="M194.69,23.35l-.22.2a.16.16,0,0,1,.05.23C194.59,23.92,194.8,23.52,194.69,23.35Z"/><path class="cls-2" d="M195.43,24.49a.86.86,0,0,0-.08.62C195.44,24.92,195.6,24.56,195.43,24.49Z"/><path class="cls-2" d="M187.63,32.06c-.16.14-.24.47-.1.53A1.14,1.14,0,0,0,187.63,32.06Z"/><path class="cls-2" d="M194.74,26.38c-.09.2-.33.34-.21.63A1,1,0,0,0,194.74,26.38Z"/><path class="cls-2" d="M190.26,32.1c-.16.24,0,.27,0,.63a.58.58,0,0,1,.15-.22C190.2,32.33,190.49,32.08,190.26,32.1Z"/><path class="cls-2" d="M194.52,28.73c.08.13.23-.33.44-.4C194.87,28.08,194.64,28.57,194.52,28.73Z"/><path class="cls-2" d="M193.53,30.86c-.06.22-.2.4-.16.66a6.1,6.1,0,0,1,.41-.7C193.78,30.57,193.52,31.11,193.53,30.86Z"/><path class="cls-2" d="M187.14,36.36c-.19-.17-.18.35-.26.46C187,37,187.06,36.48,187.14,36.36Z"/><path class="cls-2" d="M187.69,37.11c.18-.09,0-.32.26-.39q-.07-.22-.27-.12C187.79,36.85,187.52,37,187.69,37.11Z"/><path class="cls-2" d="M184.35,39.78a.83.83,0,0,0-.29.66A2.6,2.6,0,0,0,184.35,39.78Z"/><path class="cls-2" d="M196,30.07c-.17.08-.13.24-.27.33,0,.27.16.14.32,0Z"/><path class="cls-2" d="M194.58,31.44c-.2.11-.22.3-.31.45C194.35,32,194.7,31.64,194.58,31.44Z"/><path class="cls-2" d="M195.47,31.37a.11.11,0,0,0,0,.13c-.35.44-.36,1-.67,1.47,0,.33.19.2.25.4.21-.25,0-.27.06-.49s.19,0,.28-.25c-.19-.08,0-.43,0-.67.18-.1.19-.26.33-.38C195.67,31.27,195.44,31.69,195.47,31.37Z"/><path class="cls-2" d="M186.28,40c.1-.11,0,.29,0,.35.12.21.06-.25.22-.26,0-.28-.12-.16-.17-.29a2.73,2.73,0,0,0-.33.43C186,40.39,186.22,40.11,186.28,40Z"/><path class="cls-2" d="M200.08,28.11c-.15.18-.38.34-.28.62C199.91,28.53,200.09,28.36,200.08,28.11Z"/><path class="cls-2" d="M200.34,28.14c-.09-.15-.23.29-.18.44C200.4,28.5,200.24,28.27,200.34,28.14Z"/><path class="cls-2" d="M199.77,28.94c0,.2.13.16.18.29.07-.1.06-.22.14-.31C200,28.8,199.9,28.85,199.77,28.94Z"/><path class="cls-2" d="M186.06,40.72c-.2-.12-.25.46-.43.59C185.79,41.58,186,40.94,186.06,40.72Z"/><path class="cls-2" d="M202.81,27.41a1.65,1.65,0,0,0,0,.95A2.5,2.5,0,0,0,202.81,27.41Z"/><path class="cls-2" d="M184.94,43c.11.06.38-.19.33-.42C185.17,42.48,184.86,42.7,184.94,43Z"/><path class="cls-2" d="M197.45,32.48c-.21.16-.35.93,0,.65C197.3,32.86,197.46,32.71,197.45,32.48Z"/><path class="cls-2" d="M193.68,36c-.2,0-.42.55-.33.89.1-.11.12,0,.14.06C193.76,36.75,193.47,36.28,193.68,36Z"/><path class="cls-2" d="M200.55,30.5a.87.87,0,0,0-.32.76C200.27,31,200.59,30.82,200.55,30.5Z"/><path class="cls-2" d="M184.36,44.06c-.05.09-.1.18-.12.09,0,.46-.37.75-.37,1.21C184.08,44.78,184.59,44.68,184.36,44.06Z"/><path class="cls-2" d="M196.33,35.25c-.2.09-.05.32-.05.5a.51.51,0,0,1,.15-.23C196.38,35.49,196.35,35.39,196.33,35.25Z"/><path class="cls-2" d="M183.82,45.48c-.07-.2-.12.17-.24.18.26,0-.07.22,0,.51.24-.06,0-.36.21-.41C183.77,45.65,183.75,45.55,183.82,45.48Z"/><path class="cls-2" d="M183.45,46.18c-.22.37-.51.33-.5.71.27-.32.18.21.44-.08C183.16,46.69,183.49,46.43,183.45,46.18Z"/><path class="cls-2" d="M197.74,36.08c-.14.28-.2.75.07.55C197.8,36.34,197.86,36.25,197.74,36.08Z"/><path class="cls-2" d="M182.57,48.24c-.26.17-.24.47-.38.69s-.15-.1-.16-.3c-.27.38.07.52-.22,1.07.2-.05.14-.09.36-.26,0-.33-.08.07-.24.1C182.1,49.09,182.51,48.75,182.57,48.24Z"/><path class="cls-2" d="M189.8,44.23a.75.75,0,0,0-.11.76C189.82,44.73,189.94,44.42,189.8,44.23Z"/><path class="cls-2" d="M193.8,41.25c-.1.23-.08.06-.24.19,0,.15.14.12.21.17S193.8,41.38,193.8,41.25Z"/><path class="cls-2" d="M191.09,46.86a1.48,1.48,0,0,0-.24.87C190.9,47.44,191.24,47,191.09,46.86Z"/><path class="cls-2" d="M196.63,44.74c-.15.11-.17.28-.28.4s.27-.28.25,0C196.68,45,196.63,44.87,196.63,44.74Z"/><path class="cls-2" d="M199.75,42.23a1.11,1.11,0,0,0-.16.84C199.66,42.8,199.88,42.34,199.75,42.23Z"/><path class="cls-2" d="M187.35,52.84l-.24.17c0,.05.08.09,0,.16S187.42,53,187.35,52.84Z"/><path class="cls-2" d="M196.77,46.63c-.22.23-.21.57-.51.75,0,.15.17,0,.26,0,0,.21-.24.43-.08.5.11-.13,0-.35.22-.43C196.46,47.27,196.81,47,196.77,46.63Z"/><path class="cls-2" d="M187.58,54.4c0,.1-.16.17-.17.29s.24.12.32-.06S187.52,54.71,187.58,54.4Z"/><path class="cls-2" d="M195.38,50.4c-.18,0-.57.76-.37.9A2.05,2.05,0,0,1,195.38,50.4Z"/><path class="cls-2" d="M196.79,50.41a.66.66,0,0,0-.2.67A2.17,2.17,0,0,0,196.79,50.41Z"/><path class="cls-2" d="M193.5,53.31c-.12.2-.3.37-.28.64A1.13,1.13,0,0,0,193.5,53.31Z"/><path class="cls-2" d="M192.25,55.45c-.13.12-.11.31-.23.42s.15,0,.25-.1Z"/><path class="cls-2" d="M191.92,56.45c-.19.1-.15.33-.29.46C191.67,57,192,56.66,191.92,56.45Z"/><path class="cls-2" d="M183.19,63c0,.07,0,0,.06,0s-.11.15-.18.21.19.2,0,.4c0,.27.2-.31.19-.05C183.34,63.38,183.5,62.74,183.19,63Z"/><path class="cls-2" d="M183.08,63.78c-.1,0-.11.14-.12.25s-.17.13-.18,0c-.09.08-.05.24-.06.36l.31-.21C183,64,183.12,64,183.08,63.78Z"/><path class="cls-2" d="M181.79,64.82a.84.84,0,0,0-.18.52C181.8,65.25,181.81,65,181.79,64.82Z"/><path class="cls-2" d="M189.93,59.66c-.17.25.08.35.2.27C190.28,59.61,190,59.76,189.93,59.66Z"/><path class="cls-2" d="M190.56,59.38c-.21.29-.52.71-.34,1C190.29,60,190.65,59.82,190.56,59.38Z"/><path class="cls-2" d="M189.76,60.11c-.07.23-.23.4-.23.66a3.5,3.5,0,0,1,.36-.58C189.87,60.11,189.76,60.22,189.76,60.11Z"/><path class="cls-2" d="M188.7,60.87c-.19.57-.36.64.15.47C188.88,61,188.76,61,188.7,60.87Z"/><path class="cls-2" d="M180.93,66.66a.72.72,0,0,0-.31.6C180.75,67.07,180.94,66.92,180.93,66.66Z"/><path class="cls-2" d="M179.12,69.41c-.11.67-.52,1.07-.44,1.55a6.77,6.77,0,0,0,.57-1.39c.08,0,.06.11.07.2C179.64,69.43,179.39,69.26,179.12,69.41Z"/><path class="cls-2" d="M187.25,64.76c-.25.27.19.25,0,.4C187.46,65.29,187.37,64.69,187.25,64.76Z"/><path class="cls-2" d="M187.19,65.12a.73.73,0,0,0-.17.61A.88.88,0,0,0,187.19,65.12Z"/><path class="cls-2" d="M177.92,72.3l-.25.16c0,.14.07.12.06.27C177.78,72.58,177.93,72.49,177.92,72.3Z"/><path class="cls-2" d="M184.33,68.75c0,.14.18,0,.13.32C184.64,68.8,184.57,68.32,184.33,68.75Z"/><path class="cls-2" d="M182.7,78.89a.4.4,0,0,0-.16.64A1.88,1.88,0,0,0,182.7,78.89Z"/><path class="cls-2" d="M179.12,84.87c-.27.18,0,.33-.29.55-.18,0,.06-.28,0-.4a.55.55,0,0,0-.15.63c.1-.14.17-.18.26-.15,0,.36-.38.45-.36.82.08-.13.13-.29.33-.34a1,1,0,0,1,.49-.82C179.31,85.08,179,85.27,179.12,84.87Z"/><path class="cls-2" d="M177.86,87.13l-.27.15c0,.3-.09.27,0,.48.24-.14.17-.65.28-.31C178,87.34,177.87,87.17,177.86,87.13Z"/><path class="cls-2" d="M177.17,87.91c.09,0,.05.3,0,.52l.19-.12a.24.24,0,0,1,.08-.19c-.11-.09-.12,0,0-.28C177.31,87.91,177.3,87.82,177.17,87.91Z"/><path class="cls-2" d="M176.49,88.76c0,.27-.22.4-.24.67.23-.21.24-.56.56-.7C176.74,88.53,176.67,88.77,176.49,88.76Z"/><path class="cls-2" d="M176.22,89.91c0-.22,0-.33-.18-.21A.77.77,0,0,0,176,90,.33.33,0,0,0,176.22,89.91Z"/><path class="cls-2" d="M176,90c-.12.08-.13,0-.26.07s.1.14,0,.24.16,0,.26-.07Z"/><path class="cls-2" d="M176.05,90.54c0-.08-.51.25-.48.5A1.43,1.43,0,0,0,176.05,90.54Z"/><path class="cls-2" d="M173.64,93.72c0,.22-.09.33-.1.52.2-.06.14-.3.34-.35C173.88,93.72,173.87,93.54,173.64,93.72Z"/><path class="cls-2" d="M172.58,95.59a.58.58,0,0,0-.29.46l.27-.14Z"/><path class="cls-2" d="M171.84,96.67c-.18.21-.33.44-.5.65s.37-.26.32,0c.12-.12,0-.15,0-.24S171.9,96.88,171.84,96.67Z"/><path class="cls-2" d="M171.69,97.67c-.14.1-.1.33-.24.43.13.05.25-.09.42-.3C171.87,97.66,171.65,97.87,171.69,97.67Z"/><path class="cls-2" d="M170.36,98.66c-.06.48-.45.7-.69,1,0,.36.49-.28.74-.31-.13-.18-.21-.1,0-.52.3-.16.37-.05.56-.36C170.82,98.33,170.69,98.44,170.36,98.66Z"/><path class="cls-2" d="M170.71,99c-.21.22-.3.53-.53.73C170.28,99.78,170.74,99.36,170.71,99Z"/><path class="cls-2" d="M170.05,100.34c-.12,0-.15.17-.28.21,0,.23.28,0,.23.27a.73.73,0,0,0,.17-.39C169.91,100.6,170,100.65,170.05,100.34Z"/><path class="cls-2" d="M169,102c-.14,0-.19.15-.28.22.1,0,.07.2.24.1C168.82,102.24,168.93,102.24,169,102Z"/><path class="cls-2" d="M153.84,120.58a1.53,1.53,0,0,0-.59.86,5.48,5.48,0,0,0,.72-.55C154,120.74,153.87,120.69,153.84,120.58Z"/><path class="cls-2" d="M149.89,126.11c-.21,0-.21.25-.35.33S149.92,126.32,149.89,126.11Z"/><path class="cls-2" d="M144.94,131.14c-.1-.11-.52.32-.58.6A4.71,4.71,0,0,0,144.94,131.14Z"/><path class="cls-2" d="M142.53,133.52c-.17.31-.6.74-.57.93C142.19,134.22,142.6,133.76,142.53,133.52Z"/><path class="cls-2" d="M137.87,138.5c-.24.11-.38.35-.59.49C137.35,139.09,137.82,138.78,137.87,138.5Z"/><path class="cls-2" d="M132.24,143c0,.08,0,.26,0,.35a.71.71,0,0,0,.27-.34C132.37,143,132.39,142.91,132.24,143Z"/><path class="cls-2" d="M106.75,147.33c-.48.21-.73.8-1.21,1C105.9,148.43,106.42,147.71,106.75,147.33Z"/><path class="cls-2" d="M105.55,148.47a.58.58,0,0,0-.5.43A1.46,1.46,0,0,0,105.55,148.47Z"/><path class="cls-2" d="M122.73,151.83c0,.09,0,.14.16.12a5,5,0,0,0-.84.73,3.43,3.43,0,0,0,1.1-.84C122.89,151.93,122.91,151.81,122.73,151.83Z"/><path class="cls-2" d="M120.69,152.75c.07.08-.12.37.13.32S120.92,152.71,120.69,152.75Z"/><path class="cls-2" d="M121.57,153c0-.1-.16,0-.27,0-.1.17-.12.28-.09.36S121.38,153,121.57,153Z"/><path class="cls-2" d="M108.53,163.2c-.26.09-.26.29-.32.43a.67.67,0,0,0,.31-.29C108.45,163.34,108.51,163.26,108.53,163.2Z"/><path class="cls-2" d="M107.88,164.19c-.19,0-.27.38-.24.42C107.89,164.45,108,164.31,107.88,164.19Z"/><path class="cls-2" d="M106.72,164.67a9.17,9.17,0,0,0-1.5,1c.2.08-.14.25-.3.48A23.23,23.23,0,0,0,106.72,164.67Z"/><path class="cls-2" d="M105,165.89c-.26,0-.4.32-.6.49A.86.86,0,0,0,105,165.89Z"/><path class="cls-2" d="M104.17,166.53a2.75,2.75,0,0,0-.71.43C103.56,167,104,166.83,104.17,166.53Z"/><path class="cls-2" d="M103.4,166.69a1.87,1.87,0,0,1-.66.22c-.09.24-.21.32.05.41C102.72,167.07,103.23,167,103.4,166.69Z"/><path class="cls-2" d="M104,168.76c0-.19-.39.14-.48.29a.82.82,0,0,0,.35-.08C104,168.85,103.85,168.8,104,168.76Z"/><path class="cls-2" d="M100.55,169.19c0-.05,0-.06,0-.06h-.16c-.08.25-.78.47-1,.89.09,0,.12,0,.11.06.24-.25.52-.4.75-.68.38,0-.08.2,0,.34s.18-.37.37-.34S100.18,169.31,100.55,169.19Z"/><path class="cls-2" d="M103,169.48a3.85,3.85,0,0,0-1.07.84A5,5,0,0,0,103,169.48Z"/><path class="cls-2" d="M99,170.22c-.19.13-.3-.1-.58.08.17.07.16.18-.11.4A1.55,1.55,0,0,0,99,170.22Z"/><path class="cls-2" d="M98.73,170.7a1.84,1.84,0,0,0-.78.62C98.39,171.13,98.4,171,98.73,170.7Z"/><path class="cls-2" d="M96,172.26c-.05.09.21,0,.14.13.41-.21.67-.76,1.16-.8C97.13,171.23,96.47,172.17,96,172.26Z"/><path class="cls-2" d="M97.49,171.66a3.57,3.57,0,0,0-1.17.94C96.8,172.48,97.12,172,97.49,171.66Z"/><path class="cls-2" d="M96.77,172.74c0-.2-.44.25-.59.39C96.43,173.12,96.53,172.78,96.77,172.74Z"/><path class="cls-2" d="M96.43,172.67c-.37.14-.77.22-1,.66C95.7,173,96.16,173,96.43,172.67Z"/><path class="cls-2" d="M94.53,173.38c.44,0,.08.35-.19.41s.06-.26.19-.41c-.23-.07-.29.25-.52.2,0,.36-.63,1.14-.94,1.48.13.23.75-.65.71-.81.14.18.49-.21.42.08.36-.47.62-.93,1.1-1.61A1.26,1.26,0,0,0,94.53,173.38Z"/><path class="cls-2" d="M93,174.65c0-.09-.15-.06-.26-.07s-.25.33-.43.39c0,.07.13.08,0,.21.14,0,.27-.09.4-.13S92.66,174.73,93,174.65Z"/><path class="cls-2" d="M92.18,174.77c-.18.11-.57.42-.21.39C92.18,175,92.07,174.92,92.18,174.77Z"/><path class="cls-2" d="M92,175.37c0-.22-.29.13-.44,0,0,.16.08.13-.16.33C91.65,175.75,91.78,175.46,92,175.37Z"/><path class="cls-2" d="M198.55,14.65c.11-.07.1.26.26,0,0-.13,0-.22,0-.36-.17.52-.58-.42-.27.27a6.45,6.45,0,0,1-.62,1.63c.09.3,0,.37-.16.44,0,.07.12,0,.14.05,0,.27-.15,0-.27.26.16.11.1.24.28.66.13-.21,0-.51,0-.77.25-.13.17-.37.19-.57.44-.31.45-1,.65-1.2-.07-.34-.35.25-.37.37C198.31,15.14,198.65,15,198.55,14.65Z"/><path class="cls-2" d="M195.65,19.8a2.58,2.58,0,0,0-.31,1c.14-.21.16,0,.29-.18C195.37,20.42,195.68,20.13,195.65,19.8Z"/><path class="cls-2" d="M195.13,21.38c-.06.19,0,.29.15.13,0,.1-.08.16-.14.23,0,.27.11.23.14.41a3.29,3.29,0,0,0-.28,1.18c-.49.33-.32.92-.57,1.35-.26-.13.12-.75-.11-.9-.1.75-.49,1.08-.47,2-.21.13-.39.21-.28.61-.2.11-.35,0-.32-.34-.13.07-.05.22-.13.3.15-.08.14.37.34.14-.32.37-.21.92-.4,1.34.05-.63,0-1.06,0-1.2-.31.1-.19,1-.26,1.4-.19,0-.28.42-.33.66,0,.07.12,0,.14.05s0,.13,0,.21-.09-.13-.19,0c-.17.53-.22,1.11-.37,1.65-.05,0-.07,0-.12,0,.12-.59.06-.82.16-1.37-.31.37-.33.87-.57,1.27.08.2.11-.17.23-.19.05.14,0,.24,0,.36-.2.25-.3,0-.4.26s.09.1.1.26c.06-.05,0-.13,0-.2s.4,0,.23-.2c.32-.29.25.18.13.42,0-.36-.25.31-.32,0-.12.14.07.41,0,.56s-.13-.36-.08-.54-.24.08-.28-.12c-.17.2-.09.49-.27.68-.15-.07,0-.29-.15-.49-.27.15-.09.49-.34.65.09.16.16-.26.34-.29a2.38,2.38,0,0,1-.23.55c.23-.23.26,0,.4.09s-.05.13,0,.2c-.16.26-.08-.21-.25,0,.13.37-.54,1.77-.77,1.54.06.22-.08.41.06.47-.22.28-.24,0-.42.18.15-.3.13-.67.31-1a2.55,2.55,0,0,0-.58,1.26c-.12.09-.11-.15-.25,0a1.11,1.11,0,0,1-.31,1c.16.11,0,.37.29.28-.22.12-.08.45-.34.71.31-.07-.09.56.08.62-.26.41-.1-.35-.32-.07a.69.69,0,0,1-.11.6c-.09,0-.14-.11-.21-.17a11.3,11.3,0,0,0,.5-1.8c-.18.09,0,.33-.26.39.09,1-.8,1.52-.81,2.46-.64.63-.84,2.23-1.35,2.44-.12.23-.22.48-.35.7.2.25-.15.59-.21.93-.07,0-.08-.13-.2,0,.17.1,0,.54-.14.44-.07.77-.64,1.3-.8,2,.18-.14.1.22.1.35s-.05-.33-.15-.3a5.89,5.89,0,0,0-.65,1.74c-.25-.14-.55.53-.44.74-.17.06-.14.22-.29.29.24.49-.82,1.47-.8,2.33-.6.35-.44,1.63-1,1.85a1.74,1.74,0,0,0,.21-.55c-.24,0-.26.77-.54,1.2-.12.17-.63.75-.45.88,0,.16-.21.19-.29.29-.06.49-.37.85-.42,1.34a16,16,0,0,0-1.2,2.27c-2.58,4.91-5.22,9.78-8,14.59S164.9,82.22,162.05,87a244.38,244.38,0,0,1-18.85,27.17c-.19.09-.15-.09-.15-.23,1.27-1.07,1.95-2.69,3.16-3.82,0-.19,0-.24.16-.47.09,0-.05.11-.05.23.24-.14.19-.54.5-.61.05-.22-.18-.1-.14-.3a4.5,4.5,0,0,0,1.71-2.13,5.7,5.7,0,0,0,1.32-1.78c.08-.05.11,0,.12,0,.52-1.07,1.72-2.18,1.91-3,.19-.09.12.07.27-.12s-.11,0-.19,0c1-1,1.37-2.28,2.47-3.36-.12-.26.49-.73.69-1,.34-.49.38-1,.7-1.1a2.33,2.33,0,0,1,.89-1.29c.11-.29-.21,0-.1-.25,0-.1.32-.26.26-.12,0-.41.37-.59.48-1,.11-.08.12,0,.11.09.1-.5.46-.79.63-1.25.25.13,0,0,.33-.23-.07-.06-.06-.24,0-.38.06,0,.15,0,.26-.06-.06-.42.6-.73.69-1.43.12-.06.17,0,.19,0a17.84,17.84,0,0,0,1.31-2.43c.18-.36.59-.55.58-1,.33-.21.76-.71.69-1,1.4-2,2.37-4.09,3.79-6.25,0-.14,0-.1,0-.2.19-.12.19-.2.46-.41.5-1.34,1.81-2.76,2.29-4.33.11-.07.13,0,.25-.07a9.7,9.7,0,0,1,.85-1.63c-.11,0-.45-.07-.25-.63.22-.07.22.1.45-.18.14,0,.05.44-.13.46,0,.31.43-.25.25-.3.65-.57.69-1.52,1.34-2.1-.13-.29.2-.74.57-1,0-.15,0-.12-.13-.08.47-.59.73-1.3,1.19-1.89,0-.09-.11,0-.13-.15.61-.88,1.06-2.32,1.72-2.87,0-.07-.08,0-.13,0a30.05,30.05,0,0,1,1.74-3.08,18.17,18.17,0,0,1,1.45-2.95c0-.27-.17,0-.14-.3a.41.41,0,0,1,.11-.24c.26.42.51-.64.77-.92-.13-.21-.16.25-.3.28s0-.32,0-.43c.61-.17.72-1.11,1.17-1.6,0-.27-.18,0-.15-.3,0-.1.12-.14.11-.24s.07.16.08.27a.56.56,0,0,0,.22-.56c-.06,0-.22.13-.19-.1-.12.08-.07.26-.24.32,0-.27.23-.37.15-.67.28-.09.28-.34.4-.53.19,0-.21.38-.15.59.4-.27,0,.21,0,.39.5-.45.2-.54.62-1,0-.13-.2.1-.25,0s.07-.11.12-.16-.11-.1-.19.05c-.05-.4.16-.66.11-1.06.15-.15.2-.25.31-.13.11-.26-.05-.66.18-.87s0,.26.09.35c.18-.15.09-.41,0-.39,0-.23.3-.29.28-.52.1,0,.07.21.25,0-.13-.4.2-1.35.46-1.23.09-.28.33-.48.24-.84.41-.2.31-.84.62-.87-.27-.51.7-1,.6-1.68.3-.46.4-1,.73-1.47.16-.12-.12.32.13.07,0-1,.79-1.57.94-2.47-.11.07-.12.19-.23.26s-.06-.13-.13-.07c.18-.35.48-.64.63-1,0-.11-.1.07-.17.13s.14-.26,0-.43c.1,0,.16,0,.23-.18-.26-.49.51-.91.44-1.53q.27-.27.27.12c.19-.11.13-.33.26-.46,0-.09-.15.05-.24.11a.83.83,0,0,1,.06-.55c.1-.06.15,0,.15.21a5.76,5.76,0,0,1,.47-1.3c.09,0,.08.2.25,0-.27-.4.46-1.62.46-2.1.22-.07.35-.58.36-.13.14-.25.05-.31-.06-.38.08-.27.45-.19.43-.61-.17.07-.1.25-.21.34,0-.1,0-.13-.08-.1a4,4,0,0,0,.61-1.89c.19.09.18,0,.43-.11,0-.23-.23,0-.37.06-.17-.45.39-.59.27-1,.26-.33.2.26.4.09,0-.28-.21-.2-.31-.34s.22-.19.2-.35.08.15.11.26c.12-.2.14-.58,0-.51.38-.34.17-.41.53-.63a1.23,1.23,0,0,1,.31-.87c-.08-.09-.25.1-.24-.24l-.28.24c-.08.23.15.18-.13.38,0,.14.07.1.14,0-.14.38-.48,1.62-.75,1.26-.12.09,0,.29,0,.43-.22.15-.27-.07-.25-.32-.09.11-.29.75,0,.56,0,.29-.29.49-.18.85-.12.08-.07-.33-.18-.29s-.16.9-.41.61c-.13.12,0,.26.1.18a1.58,1.58,0,0,1-.36.64c0,.08.12,0,.15.13s-.13.28-.12.45a.25.25,0,0,1-.15-.14,4.58,4.58,0,0,1-.53,1.64c-.15.1.06-.2,0-.31-.17.14-.08.39-.31.51a.9.9,0,0,1,.34-.71c-.22-.31.36-.83.32-1.29-.39.78-.58,1.53-.89,2.18.07.2.11-.17.23-.18,0,.48-.44.28-.4.75.08-.11.13-.23.21-.34.12.25-.17.31-.05.56-.11.13-.12,0-.15-.14,0,.1,0,.22-.14.29.2.21-.35,1.2-.61,1.67-.2,0,.18-.24.08-.4a13.86,13.86,0,0,1-1,2.49c-.08,0-.07-.15-.09-.26a.29.29,0,0,0,0,.51c-.1.38-.2-.09-.41.24-.06.37.25-.17.26,0-.21.5-.21,1.1-.65,1.5.16.29,0,.47-.1.82-.16.19-.16,0-.3.15a3.25,3.25,0,0,1-.38,1.2c-.16,0,0-.36.08-.48a1.54,1.54,0,0,0-.33,1.08c-.17.2-.13-.12-.3.07,0-.22.15-.44,0-.51a7.23,7.23,0,0,0-.55,2.07c-.24.28-.11-.32-.32-.09A6.3,6.3,0,0,1,180,49c.08.43-.19.56-.31.72s.17,0,.15.22c-.42.35-.56,1.61-.89,1.52a12,12,0,0,0-1,2.34c-.36.28-.34.76-.76,1,.07.36-.22.52-.13.89-.17.18-.17,0-.31.13a26.33,26.33,0,0,1-2.12,4c.06.08.07.27.19,0a18.08,18.08,0,0,0-1.77,3.34c-.06.32-.43.45-.55.73,0,.08.13,0,.13.08a3,3,0,0,0-.66,1.27l-.37.23A16.15,16.15,0,0,1,169.7,69s.07,0,.07.11c-1.24,1.93-2.23,4-3.46,6a11.84,11.84,0,0,1-1.47,2.56c-.28.48-.38.93-.75,1.18v.31c-.37.08-.35.79-.8,1-.35,1.1-1.44,2.28-1.93,3.52l-.26.14c-.67,1.57-1.81,2.81-2.48,4.38-.58.48-.68,1.32-1.27,1.8-.06.49-.51.69-.6,1.16a18.66,18.66,0,0,0-2,3c-1.55,2.17-2.88,4.53-4.51,6.63l0,.3c0,.12-.12.06-.12,0-.74,1.23-1.39,2-2.14,3.27l-.27.1c-.14.23.15.26-.2.51-.1,0,0-.11,0-.23-.15.11-.29.35-.2.43-3.17,4.18-6.32,8.27-9.6,12.27a151.22,151.22,0,0,1-10.37,11.63l-.07.22c-1.09.91-1.88,2.19-3.08,3-.16.2-.16.54-.35.4a1.85,1.85,0,0,1-.84.82l-.1.29a4.64,4.64,0,0,0-1.06,1.06c-1.9,1.45-3.45,3.4-5.5,4.64l-.12.28a1.68,1.68,0,0,0-1,.85c-.13,0-.12-.06-.26,0,0,.33-.24.33-.44.38a6.53,6.53,0,0,1-1.63,1.53c-.12,0-.16,0-.15-.12-.18.1,0,.35-.4.45,0,.07.06,0,.11,0-.11.18-.34.19-.41.45-.13,0-.11,0-.08-.13a2.72,2.72,0,0,1-.72.8c-.25,0,.12-.22.2-.42-.53.62-1.11,1.16-1.66,1.74l-.36,0c0-.18-.1.18.18,0-.18.37-.47.53-.79.93-.16-.08-.49.25-.33,0-.21.09,0,.31-.52.38-.16.31.19,0,.29,0-.26.44-.73.55-1,1-.08,0,0-.12,0-.2-.13,0-.17.22-.36.15.21.11-.14.2-.24.48-1.08.42-1.69,1.8-2.73,2,0,.41-.59.76-.9,1-.12-.21.44-.37.54-.62-.12,0-.19.09-.32.08.25-.29.44-.7.71-1,.18.35.79-.56.93-.72a5.16,5.16,0,0,0-2,1.77c-.09,0,0-.16.07-.26-.31.26-1,.73-.84,1-.17.2-.21,0-.36,0-.5.62-.89.88-1.43,1.58a9.44,9.44,0,0,0-2.34,2,4,4,0,0,0-1.44,1.34c-1.14.57-2.55,2.52-4.25,2.9.58.2-.72.74-.43,1.06-.32.15-.43.72-.86.65a7.54,7.54,0,0,1-3.57,2.13c-.11.19-.22.4-.08.46a.85.85,0,0,1-.65.18c-.1.25-.3.28-.48.37,0,.23-.16.29-.2.52.16,0,.21-.18.35-.18a6.11,6.11,0,0,1-3,1.49c0,.3-.3.54-.71.69A7.87,7.87,0,0,1,80.44,169l-.44,0c.2.17-.45.43-.65.69,0,0-.1-.07-.06-.14a10.2,10.2,0,0,0-2.15,1.6A9.5,9.5,0,0,0,74.52,173a10.27,10.27,0,0,0-2.06,1.57,13.54,13.54,0,0,0-1.91,1.85c.24-.1.29,0,.45.06-.13.18-.33.16-.45.34.33-.06.41-.25.64-.19.21-.37.87-.27.87-.56s.34,0,.5,0a8.88,8.88,0,0,1,1.14-.6,8.09,8.09,0,0,0-.82.91c.71-.38,1.56-.8,2.42-1.29a17.56,17.56,0,0,0,2.44-1.68.8.8,0,0,1,.52-.15c0-.07-.06-.11-.13-.15a4.2,4.2,0,0,0,.51-.35c.41.18.89-.65,1.11-1,.23,0,0,.27-.11.46.15-.12.45-.16.5,0-.24.3-.35.2-.46.51.19,0,.2-.37.42-.24.19-.18,0-.17.16-.32a.46.46,0,0,1,.24-.12c0,.11-.16.35-.11.46s-.12.06-.16.12c0-.27-.4.15-.61.29s-.1-.09-.26-.09c-.49.36-.43.76-.89,1.05-.1-.1.31-.43.41-.63-.23.1-.66.39-.46.49a4.66,4.66,0,0,0-1.65,1.19c.41-.06.68-.51,1-.78a1.46,1.46,0,0,1-1.25.89,2.51,2.51,0,0,1-1.34.87c-1.29,1.12-2.8,1.65-4.15,2.67.4,0,.69-.23,1.1-.13a1.74,1.74,0,0,1,1.11-.34c.1-.1,0-.12.07-.2.35.12.55-.22.85-.23s0,.17-.1.32c.38,0,.66-.32,1-.42s-.06.21.15.22c.53-.12.69-.49,1.23-.81.24.12-.34.56-.52.75a.67.67,0,0,1,.35,0c0-.06,0,0-.1-.07.21-.2.42-.12.45-.36.14,0,.1.09.25.09a3.73,3.73,0,0,1,1.22-.63c.11-.16.08-.25-.11-.28a.88.88,0,0,1,.33-.31,1.29,1.29,0,0,1,.4.31c-.48.28-1.11.89-1.14,1.24a9.29,9.29,0,0,1-2.28,1.12c.3.18-.31.35-.64.46-.14-.1.34-.13.41-.29-.39,0-.62.45-.94.64-.27,0,.08-.23-.25-.1,0,.27-.84.66-1.31.8-.29.38-.77.46-1.25.78,0,.26.47-.14.66-.18A5,5,0,0,1,69.75,182c-.42.52-2.36,1-2.29,1.64-.5.11-.56.49-1,.54,0-.12.22-.19.11-.33-.93.65-1.82,1.42-1.72,1.92.28,0,.75,0,.7.18.61-.06,1.47-.46,1.78-.08.19-.3.7-.4.67-.65-.09,0-.16.1-.23.17s0-.1.14-.25a.68.68,0,0,0,.56,0c.22,0,.17.12,0,.27.18,0,.32-.14.29-.23.5.1,1.32-.51,1.9-.9.83,0,1.4-.74,2-1.3l.15,0c-.16.49-.86.81-1.13,1.21.16,0,.26-.09.43,0a31.23,31.23,0,0,1,2.64-1.72s0,.07.1.07a3.15,3.15,0,0,0-1,.92c.21,0,.34-.17.54-.15-.14-.11,0-.22.28-.24a.26.26,0,0,1-.09-.29c.4-.08,1.18-.57.9-.78.11-.18.15.19.35,0,.07.05-.22.18-.05.27.27-.09.38-.46.26-.52.15-.12.21.12.41.11.3-.25,0-.26.2-.45s.27,0,.18.09c.29,0,.14-.25.18-.32s.38,0,.46.05c-.1.19-.27.21-.39.36.43,0,.5-.37.42-.5a1.91,1.91,0,0,0,1-.85c.37,0,0,.2.23.23-.23.17-.47.31-.71.48q.45,0,.15.42c.2,0,.31-.16.28-.25.1.15.31-.13.46,0a2.62,2.62,0,0,1,1.06-.72c.14,0-.26.33-.43.23s0,.06,0,.07l-.1.13c.3,0,.5-.24.73-.41.19.08.1.28.29.36.07-.21.11-.15.3-.38.27,0,.23.09.41.1s.08-.17.12-.26c.21,0,.08.13.34.09a6,6,0,0,1,1.12-.58c.23.08-.12.16-.23.39.23,0,.34-.3.59-.23,0-.05.09-.18,0-.2,1-.32,1.76-1.11,2.72-1.46,0-.08-.1-.06-.18-.08a1,1,0,0,1,.37-.38c.48.41,1.16-.74,1.73-.92.06.57-.67.77-1.08,1.23.32,0,.53-.43.73-.23l.3-.39c.18,0,.17.06.26.08-.17.08-.28.32-.48.31.16.11-.12.17-.09.34.4.12.44-.64.85-.5.2-.34.4-.68.57-1,.29,0,.2.12.11.28.28.06.44-.17.66-.25-.09-.07-.07-.19.13-.4-.14,0-.22.2-.4.12a.91.91,0,0,1,.62-.31l.43-.6c.19.15,0,.22.38,0s0,.25.24.21c-.06-.37.33-.45.59-.92.4-.14.77-.33,1.18-.44a3,3,0,0,1,.78-1.14c.32-.06-.12.29,0,.34a3,3,0,0,0,1-1.47c-.61.23-.56.77-.89,1.06-.13,0-.16,0-.14-.14-.18,0-.32.37-.15.34-.64,0-1.23,1.37-2.13,1.37a3.8,3.8,0,0,1,1.79-1.44c.16-.68,1-1.12,1.79-1.59a1.28,1.28,0,0,0-.09.8c.1-.23.29-.25.4-.46.73,0,.65-.61,1.34-.59a10.79,10.79,0,0,1,.79-.75c-.19,0,0-.13-.14-.13.14-.14.32-.2.42-.41.34,0,0,.24-.14.34.13.12.72-.48.62-.61.25-.13.42-.41.76-.35.35-.18.52-.72.91-.82.32.06.06.46,0,.74.42-.27.46-.65,1.07-.95.29,0,.19.1.43-.07s-.39.17-.26-.07a1.69,1.69,0,0,0-.53.35c-.18-.12-.12-.14-.43.07-.08,0,0-.12.06-.2s.41,0,.55-.15c0,0,.07-.18,0-.2a3.65,3.65,0,0,1,.61-.34c.13,0,.09.1-.06.2s-.08,0-.23,0c0,.12,0,.27.21.27a10.7,10.7,0,0,1,2-2.22c.11,0,.22,0,.18.06a3,3,0,0,1,.9-1c.15.13-.44.61-.35.68-.24,0-.34.13,0,.07a10,10,0,0,1,1.64-1.34c.32.1-.53.53-.38.76.22-.16.34-.13.36-.35.89-.31,1.94-1.73,2.68-2.31.22,0-.35.46,0,.33,0-.25.25-.49.48-.7a1.48,1.48,0,0,0-.55.3s0-.06-.11-.06c.28-.35.76-.34,1-.8.14,0,.11.07.26,0,.19-.33.52-.4.75-.65.13,0,.16,0,.15.12.16,0,.21-.27.42-.23.1-.12,0-.13-.07-.13a25.78,25.78,0,0,0,2.71-2.06c.12,0,.11.11,0,.27.18-.1.3-.29.5-.38.22-.27-.23-.09,0-.33a1.15,1.15,0,0,0,.76-.61c.2,0,.1.11.34,0,.06-.14-.13-.12-.07-.26.43,0,.24-.2.64-.53.2-.05.1.12.34,0,0-.08,0-.14-.15-.12.29-.35,1.18-.71,1.32-.49.44-.5-.55.13-.35-.3.19-.14.19,0,.49-.12.18-.31.57-.43.51-.74.24-.18.51-.41.72-.29l.18-.36c-.32,0,0,.18-.3.17,0-.34.92-.78,1.29-1.3,0,.18.13.25-.09.48.5-.11.28-.56.65-.88.39,0,.53-.38.73-.65a1.76,1.76,0,0,0,1-.68c.17.07-.25.27-.28.44.18,0,0,.3.13.33.17-.42.58-.79.7-1.19.13,0,.22-.17.48-.28.24.08-.63.55-.06.42-.08.25-.35.22-.43.47.27,0,.54-.59.67-.37.1-.25.32-.36.53-.69.17.25.32-.25.71-.31.2-.44.56-.64.82-1-.09-.12-.43,0-.53.22-.12-.23.45-.49.65-.64.12.05,0,.26,0,.34.11.07.27-.06.39.07-.19-.28.25-.33.39-.75-.23-.06-.23.23-.43.21.16-.16.26-.42.53-.43.1,0-.07.1-.1.22.12,0,.25-.16.23,0,.26-.08-.08-.25.24-.25-.13,0-.31-.07-.21-.31.26-.21.09.09.34,0s0-.21-.09-.25c.08-.09.2-.11.24-.25.38-.1,0,.39.34.35,0-.13,0-.28-.07-.33.08-.28.45-.16.49-.5.25-.09.24,0,.42,0,.14-.31.43-.43.67-.6,0-.31.41-.58.7-.8.19-.06-.19.34.13.18.09-.38.43-.51.77-.82.16-.25-.21-.06-.1-.25.27-.3.19.12.49,0,.13-.13.16-.2.12-.3.76-.12.9-1.09,1.56-1.36,0-.35.16-.42.4-.84.09-.09.25,0,.43-.23.18.1-.24.35-.28.54a1.47,1.47,0,0,0,.67-.82c.3-.18.24,0,.49,0,.18-.22.37-.25.33-.48l.3-.07c-.22-.07.28-.62.65-.62,0-.35.2-.4.49-.6.12-.3-.05,0-.19,0,.05-.18.23-.22.33-.35.31-.05.18.07.18.23a1.32,1.32,0,0,1,.83-.41.24.24,0,0,1-.13.17c.12.08.54-.42.76-.6-.6.42-.67.15-1.23.58.27-.69.69-.35,1-.73-.12-.11-.6.12-.66-.05.23,0,.56-.37.8-.33,0-.26-.07-.38-.06-.61.12.25.37,0,.65-.09s-.09.35.19.23c0-.17.05-.22-.09-.33.13-.13.41-.2.15-.24a1.84,1.84,0,0,1,.58-.28c.08.08-.45.44-.19.53.18-.35,1.17-1.74,1.24-1.21.16-.13.2-.41.43-.45,0-.47.68-.79.8-1.41.26.09.45-.33.49-.07.21-.12,0-.26.17-.53a3.65,3.65,0,0,0,1.07-1.2c.18.11.46-.26.39-.39.28,0,.34-.24.57-.3-.13,0-.21,0-.4,0a1,1,0,0,1,.64-.33c.27-.24,0-.3.48-.5,0-.06-.15,0-.08-.19a1.7,1.7,0,0,1-.7.57c.35-.37.72-.72,1.06-1.1,0,0,0,.06.12,0-.11.22-.52.42-.38.6.33-.17.34-.62.84-.81,0-.11.06-.22.14-.26s0-.13-.17-.08c.12-.32.42-.43.55-.73.23-.13.16.05.34,0,.12-.26-.23,0,0-.28s0,.24.27,0c.09-.19-.1-.07-.07-.19,1.06-.45,1.6-1.75,2.34-2.24.13,0,0,.25.06.27.32-.24.35-.78.82-.84,0-.09,0-.13-.17-.09,0-.2.16-.23.18-.41s.11.07.08.19c.21-.09.27-.32.45-.44,0-.08-.12,0-.2,0,0-.19.19-.2.23-.36.06,0,0,.15.18.08l.08-.31c.18-.09.12.09.34,0a17.86,17.86,0,0,1,1.25-1.59l-.22.08c.13-.14.13-.4.32-.47s.11.06.08.18a3.17,3.17,0,0,0,.74-1.12c.18,0,.32-.07.42-.36-.34.17-.14-.07-.07-.26-.36.53-.7.59-1.08,1.17,0,.1.07,0,.15-.05,0,.22-.25.14-.23.36a1.92,1.92,0,0,0-.57.21c.64-.51,1.13-1.55,1.7-1.82,0-.06-.06,0,0-.13.12-.25.06.14.27,0,0-.54.44-.73.75-1-.08-.23.12-.44.34-.63,0,.18,0,.46.23.42-.1.18-.36.41-.25.52.15-.22.18-.2.37-.21-.05-.2.1-.32,0-.45.11-.22.36-.29.39-.58.38,0,.66-.61.89-1.06.18.14.32-.06.43-.45.08,0,.12,0,.09.18.37-.29.47-.82.82-1.13,0-.14-.23,0-.17-.15s.32-.09.26-.32c.13-.06.17,0,.18.07.17-.15-.16-.12.14-.35.16-.08.26-.08.25,0,.13-.35.68-.71.58-1,.18-.1.13.09.34-.06-.17-.16.2-.31.19-.3.28-.4.15-.71.65-1-.11-.21.32-.6.48-.86.06,0,0,.15.18.06,0-.32.33-.44.36-.88-.06-.19-.37.16-.38.31s.06-.36.14-.43-.23.22-.31.28,0-.17,0-.29.42-.16.43-.54c.17-.09.34-.16.32,0,.25-.11.26-.44.55-.52,0-.12-.18-.14,0-.37a2.34,2.34,0,0,1-.24,1.35c.16-.17.36-.3.53-.45,0-.13-.09-.25.13-.35,0-.1-.1-.07-.1-.18.11-.31.18-.08.44-.26-.28-.15.41-1.17.75-1.08-.14-.12.18-.24.15-.51-.24.09-.23.4-.47.5-.11-.09.35-.48.49-.66a.5.5,0,0,1,0-.37c0-.19.18-.06.11.1.19-.16,0-.33-.16-.23s-.22.24-.2.46c-.1,0-.16,0-.25,0,.1-.33.47-.44.57-.78.16,0,0,.65.34.29-.2-.06,0-.14.07-.4.2.11-.06.25.33-.08-.09-.11-.12-.16,0-.44.29.08.23-.48.6-.58a8.49,8.49,0,0,1-1.35,2c.4-.12-.28.59,0,.66.12-.05.16-.17.29-.21-.12-.25.37-.61.55-.62-.29,0,0-.38-.27-.32.12-.14.13-.37.33-.44s-.34.44.1.17c.05.22-.24.17-.19.38.13-.06.13,0,.27,0,0-.48.26-.46.45-.44-.23-.19.44-.79.63-1.18,0-.21-.09,0-.26,0,.06-.53.69-1,.64-1.35.23-.18.11.14.24.11a6.37,6.37,0,0,1-.64.9c0,.16.08.23.23.19,0-.13.07-.18.16-.23s0-.11-.12-.09a2.18,2.18,0,0,0,.8-1.5c.2.37.43-.3.75-.28a.44.44,0,0,1,.17-.31c-.09-.23-.21.23-.36.25s0-.39,0-.82c.34-.14,0,.37.13.46.31-.2.14-.23.27-.58-.14,0-.16-.07-.24-.1s.27-.2.24-.43c-.29.16-.21.6-.59.67a2.33,2.33,0,0,1-.4,1c-.14,0,.13-.3.18-.39s-.31.21-.16.23c-.63-.36,1-1.7,1.44-2.74-.1.06-.19.11-.19,0-.18.07-.1.34-.31.38s.1-.56.34-.61c-.23,0-.09-.61.21-.71.08,0-.1.43-.25.5.23,0,.09.25.2.42.24-.19.23-.09.49-.32-.21.46-.49.61-.61,1.28.31-.13.13.13.47-.15-.1-.07-.35.07-.21-.35A8.83,8.83,0,0,0,169,101c-.16.1-.25.11-.25,0a2.93,2.93,0,0,0-.38.49c-.08-.08,0-.34.05-.48s.13,0,.12.09c.31-.27-.11-.21.2-.55.1,0,.1.25.22.27.05-.57.79-1.19.84-1.8.13,0,.1.17.32,0,.07-.26.29-.41.27-.75-.16.11-.25.13-.33.1a9.06,9.06,0,0,0,.42-.89c.21,0,.22.44-.13.59.18-.07.13.22.31.14-.06-.39.2-.59.37-1.18-.21,0-.11.32-.29.39-.14-.12.2-.36.19-.64.12-.07.13,0,.26-.06-.25-.36.45-.67.49-1.09.33,0-.13.56,0,.68.06,0,.06-.12.08-.19.23-.22,0,.23.25,0,0-.27.34-.51.11-.51,0-.3.31-.35.38-.58.11,0,.16.19,0,.32.24.1.31-.87.64-.73l0-.48c-.14.11-.17,0-.26.07.07-.28.19-.21.34-.27,0-.52.43-.72.93-1.27,0-.46.77-1.06,1-1.68-.14-.11-.19.22-.35.34-.11-.19.28-.75.46-1,.21,0-.23.37,0,.4.18-.13.31-.25.4-.22,0-.18,0-.57,0-.84s.29-.1.46-.26.19-.7.35-.51a3.7,3.7,0,0,1,.72-1.41c.26-.21.06.34.31.13.12-.4-.24,0-.17-.36s.33-.18.53-.3c0-.2.21-.3.28-.47.06.1.17.1.39-.06a.15.15,0,0,1,0-.24c0-.2-.12.17-.26.15,0-.23.17-.32.27-.47s-.24.15-.26.23-.12-.14-.18-.21c.12-.22.24-.16.14-.39.3-.16.08.14.18.21.23-.19.06-.27,0-.4.12-.31.35-.53.49-.82.1,0,.09.3.17.37.2-.23.6-.32.68-.71a1.09,1.09,0,0,0,.79-.62c-.15.11-.28.32-.39.23a1,1,0,0,1,.28-.56c0-.16-.17,0-.11-.24-.12.24-.55.57-.42.71-.1,0-.21,0-.18-.2s.26,0,.21-.44c.22-.23,0,.23.25,0-.21-.08,0-.4.23-.6,0-.23-.2,0-.27.15,0-.14.09-.22.08-.36s.39-.32.39-.15c.08-.1.13-.62.28-.4.17-.16-.11-.48.15-.72.09,0,0,.17.06.28.19-.29.67-.73.54-1,0-.11.32-.5.26-.16a2.07,2.07,0,0,0,.19-1.77,1.49,1.49,0,0,0,.21-.44c.23-.17.09.35.38.08,0,.37-.12.32-.27.48-.05.35,0,.47.24.33,0-.08-.07,0-.12,0,0-.22.07-.45.27-.57s-.09.2,0,.33c.22-.08.09-.38.33-.45-.25-.3.33-.83.73-1.17,0-.27-.14-.56-.38-.16.22,0,0,.22-.14.4s0-.13.07-.2c-.2,0-.44.7-.66,1,.31-1.11,1.31-2.49,1.79-3.76.08,0,.06.12.07.2a.53.53,0,0,0,.19-.52c.26,0,.16-.23.39-.41s-.07.49.19.2c-.1-.35.09-.4.39-.82A.61.61,0,0,1,186,72c0-.29.17-.43.13-.73.78-.39,1-1.76,1.83-2.76-.16-.05-.13-.4.13-.41,0-.29-.06-.27-.14-.32a.51.51,0,0,1,.13-.24c.08.08.21.06.19.35.31-.29-.22-.24.18-.53-.18-.23,0-.29.12-.65.14-.09.14.1.13.31.12-.69.72-1.52.53-2.16.07-.34.18-.28.31-.46s.11.26.32.1c0-.27-.09-.27-.2-.27.19-.28,0-.26.11-.57.26-.09.3.43.15.72.11-.1.13,0,.07,0a2,2,0,0,0,.83-1.67c.19-.18,0,.39.26.15-.08-.32.42-.83.59-1.26,0-.15-.08-.11-.07-.27.06,0,.07.13.19,0s0-.1,0-.32c.07,0,.05.13.13.07.26-.2.28-.53.1-.57a.24.24,0,0,0,.13-.17c.07,0,.05.11.07.19.28-.58.93-1.38.86-1.89.44-.48.13-.45.41-.72-.12-.46,0-.64.06-1.14-.15.1-.18.27-.3.39,0-.25.23-.35.23-.58.07,0,.06.1.07.19.2-.39.52-.72.7-1.12.08,0,.07.11.08.2a1.09,1.09,0,0,0,.22-.59c-.28-.39.77-1.41.8-2.15-.37.71-.72,1.44-1.12,2.14a1.86,1.86,0,0,1,.33-.76c-.12-.18-.18.31-.3.39l0-.48c.11-.1.13,0,.25-.11.14-.57-.18-.7.23-1.28.14,0,0,.49,0,.69.09,0,.23-.1.26.06,0-.16-.27-.68.11-1.11.11-.06.15,0,.15.23.23-.21-.07-.64.18-1s.1.26.32,0c0-.07,0-.05-.06,0s.13-.35-.09-.35c.07-.1.29-.51.08-.5.09-.14.07-.33.22-.43s.07.55.23.5a4.18,4.18,0,0,0,.07-.66c.15-.15.15,0,.31-.16a10.64,10.64,0,0,1,.47-1.15c.14-.1-.05.26,0,.4.31-.45-.11-.77.35-1.14,0-.14-.11-.36,0-.45,0-.2-.09.19-.24.19l0-.24c.28-.32.32-.77.6-1.09.19.07,0,.6-.25.72a1.36,1.36,0,0,1-.07.58c.07-.21.53-.6.42-1,.2-.21.17.17.38,0-.15-.36.17-1.11.39-1.72.18-.1,0,.21,0,.32.11-.28.18-.1.36-.3,0-.39.26-.69.27-1.09.39-.39.13-.49.18-1.29a3,3,0,0,1-.29.85c0,.16.06.12.13.07a1,1,0,0,1-.2.51c-.12.13,0-.24,0-.29-.14,0-.7.54-.6.94-.29.12-.55.85-.63,1.31-.16.11-.21,0-.16.31a4.47,4.47,0,0,0-1,1.91c-.24-.09-.34.67-.48.38a2.31,2.31,0,0,1-.13.63c.1-.08.11-.2.23-.28,0,.15-.07.28-.09.42s-.13,0-.14-.14c-.18.11-.17.32-.35.44,0,.14.07.09.08.19-.16.11-.3.21-.21.44-.1.08-.24.14-.24.27s0-.4-.2-.1c.17.37-.42,1.42-.71,1.57s.08.13,0,.32-.06.13,0,.21c-.18.2-.19,0-.37.2,0,.51-.5,1.24-.83,1.82.07.21,0,.34,0,.53.28-.25,0-.31.21-.59,0,.2,0,.15.26.06,0,.51-.23.82-.45.85,0-.23.3-.26.22-.51-.13.28-.38.32-.38,0-.17.4-.45.75-.63,1.14-.14-.21-.09-.11-.32.15a.89.89,0,0,1,.42-.56c0-.15-.21.09-.2-.1-.05.25-.26.43-.34.67s.21,0,.37-.11a4.11,4.11,0,0,0-.38,1.12c.07.09.21,0,.26.14-.12.4-.17-.08-.37.19-.09,0,0-.12,0-.24-.4.25-.62,1.16-1.07,1.46a3.77,3.77,0,0,1-.63,1.53c-.25.08,0-.42-.15-.55-.31.31,0,.58-.37.5q.09.27.33.18a4,4,0,0,1-.65,1.29c.19.27-.11.65-.28,1-.07,0-.06-.11-.07-.2s.15-.18.24-.26,0-.13-.07-.12v-.16c-.19.19-.11.52-.42.63,0-.19.13-.29.17-.45-.14-.17-.26.32-.37.43-.08-.56-.27.45-.55.71a.32.32,0,0,1,.15.47c-.09-.26-.25.07-.45,0a.24.24,0,0,1-.06.21c.24,0,0,.39.14.55-.11.16-.55.58-.55,1-.19.18-.18-.08-.26-.15a5.05,5.05,0,0,1-.61.75v.32l.25-.17c-.07-.33.26-.43.37-.66,0,.37-.35.54-.36.9-.39-.23-.5.58-.94,1,.13-.16.13-.39.31-.53-.15-.11-.35.43-.44.61.06.11.16.14.19.28-.12.36-.25.07-.38.17,0,.12,0,.18-.12.25.2.12.05.41-.31.61.3-.07,0,.13.07.52-.36.24.06-.53-.33-.2.19.25,0,.44.07.68-.3.22,0-.43-.13-.39a.73.73,0,0,0-.12.64c-.28.2,0-.25-.13-.24-.49.41-.32.72-.51,1.3-.15.09-.18,0-.38.16,0,.36-.27.53-.32.85-.13,0-.15-.15-.26-.16s.06-.17.07-.28c.17-.16.12.09.19.12a3.13,3.13,0,0,1,.39-1A1.85,1.85,0,0,0,183,72c-.2.15.17-.34-.06-.2a7.39,7.39,0,0,0,.51-.81c0-.07-.12,0-.12-.07,0-.27.16,0,.31-.21a.44.44,0,0,1,.13-.32c-.38-.26.4-.54.31-1,.2-.17.17.17.32-.13,0-.25-.29-.09-.32-.35-.18.11-.15.34-.32.45,0,.08.12,0,.19-.05,0,.27-.18.42-.31.61-.13,0,.05-.22-.07-.36a2.43,2.43,0,0,0,.31-.76c.2-.18.17.16.32-.13-.28-.67.75-1.79,1.11-2.59.11,0,.05.33.2.27a21.43,21.43,0,0,0-1.25,2.12c.06.17.26-.21.19-.37.2-.12.3-.39.32,0,.07-.22.15-.44.24-.65.12,0,.09.27.32,0-.09-.3,0-.32.19-.6s.12.14.31,0a2.84,2.84,0,0,0,.42-1.35c.05,0,.17-.07.19,0s-.18-.08-.12.24c.3-.29.37-.73.67-1v-.56c.14-.08.23,0,.44-.22-.1-.38-.3,0-.45.06,0-.29.45-.33.37-.66.27-.22.14.39.45.1,0-.08-.08,0-.13,0a4.79,4.79,0,0,1,.71-1.41c0-.33-.36,0-.44.23,0-.27-.15-.67.1-.81s-.08.28.07.27,0-.29.24-.33c-.06-.21-.18-.07-.08-.44.14-.11.2-.07.2.11.29-.27-.12-.44.16-.69.14,0,0,.44.26.22,0-.27-.07-.24-.08-.43a.58.58,0,0,1,.12-.25c.11,0,0,.39.14.39.14-.32.21-.19.5-.43a6.27,6.27,0,0,0,.67-1.66c.08.48.59-.93.89-1.32.16.12-.29.57-.21.91.4-.43.25-1.05.63-1.3,0-.09-.12,0-.19.05-.08-.25.14-.34.1-.57.54-.3.51-1.08.87-1.24.1-.66.43-.91.41-1.49-.12.22-.08.05-.25.18.09-.8.55-.82.84-.73-.06-.22-.25-.15-.34-.32a5.35,5.35,0,0,1,.45-.77c.13-.06-.06.36,0,.52s.53-.9.56-1.1.27,0,.13.06c.16.07.11-.25.16-.38s-.12,0-.19.06c.2-.52.94-1.14,1-1.93l.3-.24c0-.16.15-.23.09-.42.58-.38.45-1.1,1-1.5a2.81,2.81,0,0,1,.85-1.65c0,.4,0,.45,0,.77.24-.65.26-1.41.59-1.63-.29-.11-.25-.63-.64-.6.16-.3.38-.58.54-.89-.31-.1-.56,1.13-.92.94,0-.16.2-.21.29-.32-.2-.15.19-.53.09-.86.1.09.2.17.44-.11-.17,0-.13-.26-.13-.58.21-.15.51-.44.32-.54.17-.2.25,0,.34-.3.18-.07.08.07.1.27a2,2,0,0,0,.28-.85c.2-.18.14.33.34.15,0-.14-.25-.35,0-.53-.07-.07-.09-.27-.27,0,.06-.4.07-.33-.07-.56s.28-.18.21-.36c0-.35-.19.11-.3.17,0-.18.2-.31.19-.52s.09.35.28.12c-.12-.14.1-.48.15-.31a1.92,1.92,0,0,1,.69-1.57c-.07,0-.09-.25-.17-.3-.16.25-.13.12-.34.3,0,.2.11.08.19,0a6.45,6.45,0,0,1-.83,1.52c.05-.51.49-.84.54-1.35a4.48,4.48,0,0,1-.43.64c0-.29.28-.47.14-.84.14-.09.15.19.32,0,0-.13.05-.23,0-.37.12-.14.13,0,.15.14.11-.1,0-.28.21-.36-.18-.14.09-.52-.1-.64.24-.3.23.11.44-.11,0-.31.32-.86.45-.85,0-.46.23-.37.27-.79.18-.1,0,.22.05.32.27-.31.25-.74.49-1.06a.45.45,0,0,0-.25-.33c.11-.2.19-.64,0-.73.17-.27.09.21.25,0s.05-.43.23-.58c0-.28-.14-.15-.06-.39s.13.39.26.4c0,.19-.33.21-.19.44.18,0,.33-.52.31-.84.15-.21.17,0,.3-.18,0-.37.06-1.1.26-1.15s0-.15-.09-.11a1,1,0,0,1,.34-.68c-.08-.21.06-.32,0-.53,0,.33-.42.48-.31.84-.24.13-.22-.17-.48.26-.11-.47.18-.49.23-.58-.09-.32-.21.21-.36.15a.3.3,0,0,1-.13.4c.07.22-.07.34.07.39.14-.18.11-.4.27-.26s-.24.25-.18.45c-.17.06-.12-.25-.31.1.29,0-.1.29-.17.52-.05,0-.23-.12-.1-.26-.06.18-.42.51-.44.86-.38.12-.31.61-.66.69-.05.36.11.37,0,.73-.08,0-.08-.15-.11-.26-.31.19-.28.52-.46.77.06.14.11.09.18-.07.11.25-.16.46,0,.52,0,0-.25,0-.23.2-.18.08-.08-.06-.11-.26-.24.29-.19.71-.56,1,.32.27-.33.41-.13.83-.2-.15-.18.24-.36.23a1,1,0,0,1,.35-.67c-.21-.33.23-.85.53-1.19-.09-.07-.19-.13-.19-.45.11.76-1.13,1.65-.72,2.51a5.8,5.8,0,0,1-.54,1.19c.05.13.11.09.18-.07l.07.47a.73.73,0,0,1-.21.36c0-.24.15-.38,0-.65-.16.15-.22.35-.38.5l0,.32a1.08,1.08,0,0,1-.16.3c-.12.1-.15-.09-.16-.3-.24.46.23.4-.08.87,0,.07.09.1.19,0a.7.7,0,0,1-.07.41c-.21-.38-.66.58-.92.87.06-.42.61-1.27.34-1.35a11.23,11.23,0,0,0,.5-1.12c-.19-.12-.23.44-.38.58,0-.34.1-.31,0-.6.35,0,.17-.36.53-.37,0-.37-.19-.28-.35-.22,0-.28.24-.19.34-.3s.07-.32,0-.52c.16-.21.17,0,.3-.17-.07-.36.05-.17.19-.44s.19-.61.18-1c.17-.23.15.1.26,0,0,.33-.42.85-.12.91.08-.17,0-.39,0-.58a.25.25,0,0,0,.19-.07c-.06-.34-.05-.41.16-.59,0-.43-.26-.07-.26-.49,0-.07,0-.13,0-.21.17-.19.19.06.28.12.22-.1.13-.34.31-.46,0-.15-.06-.11-.13-.06.05-.42.5-.67.33-1.19.37-.65.38-1.25.81-1.73-.1-.29.1-.46.15-.68-.15-.15-.21-.07-.25-.32-.25.24-.21.26-.45.41.13.21.12.07.19.37s-.26.53-.17.89c-.18.11-.16-.38-.27-.48-.14.12-.18.65-.36.51-.2.41-.11.94-.52,1.26,0-.3.14-.53.13-.83-.09.16-.11.35-.31.46.12.13.1.19-.09.26.07.6-.47.93-.55,1.47-.16.23-.13-.09-.16-.22-.19.12-.12.34-.25.49a.83.83,0,0,0,.53-.29c.07,0,.11.06.15.13a2.44,2.44,0,0,1-.19.44c-.09,0-.08-.21-.25,0,0,.19.07.17.11.27s-.11.15-.09.25c-.21.1,0-.17-.17-.21,0-.23.26-.34.17-.6-.82,1.94-1.56,3.92-2.52,5.79.23.25-.15.83-.4.86.1.2.32.06.41.27-.07.39-.33.24-.37.65-.07,0-.07-.11-.09-.19-.16.3-.12.69-.33,1-.22-.55-.5.66-1,1,0,.29.15,0,.25,0-.21.51-.16.26-.43.7,0,.1.18-.12.19,0a.59.59,0,0,1-.21.35c.06,0,.1.15.1.35s-.25.11-.19.51c-.11.06-.15,0-.16-.23a4.2,4.2,0,0,0-.74,1.53c-.08,0-.13,0-.14-.15-.05.68-.48,1.18-.59,1.82-.06,0-.11,0-.13-.06a1.41,1.41,0,0,0-.05.8c-.15.17-.22.14-.21-.1-.22.8-.92,1.36-.88,2.29-.18.19-.14-.14-.32.06,0-.15.16-.22.1-.4a7.17,7.17,0,0,1-.79,2.1c.11.17.31-.44.32,0a1.64,1.64,0,0,0-.58.77c.13.29.13-.25.29-.39,0,.31-.13.49-.2.74a.62.62,0,0,1-.27-.3,6.1,6.1,0,0,1-.65,1.88c-.06,0-.05-.13-.13-.07s-.12.19-.24.26c0,.29.09.17,0,.47a.42.42,0,0,0-.31.14,5,5,0,0,1-.38.95c-.15.1,0-.26,0-.29-.31.13-.3.78-.19,1.05-.24.27-.19-.06-.2-.26-.21.43-.14,1-.45,1.37-.12.12-.1-.3.05-.28-.17,0-.34.21-.48.5,0-.09.13-.39-.08-.19,0-.14.2-.2.11-.4-.21.14-.19.41-.35.57.12,0,.21.23,0,.4,0,.1.07-.09.18-.13a2.09,2.09,0,0,0-.08.88c-.23.24-.11-.23-.32,0,0,.23-.13.55,0,.63a8.7,8.7,0,0,0-.78,1.42c.08.05.19,0,.14.31-.28.1-.21-.3-.5.19,0-.24.12-.35.17-.53-.18-.07-.25.58-.42.77,0,.06.15,0,.13.16s-.18.31-.43.37c0,.27.11.16.08.43s-.46.2-.36.65c-.15.14-.14-.05-.32.13a.67.67,0,0,1,.18-.44c-.76.73-1.19,2.32-1.84,3.37-.09,0-.12-.19-.13-.39-.16.2-.17.48-.37.64,0,.21.1.19.19.2-.26.53-1.09,1.32-.94,2.1-.24.09,0-.27-.13-.31a5.92,5.92,0,0,1-.45.75c0,.09.12.06.13.16-.14.43-.86.87-.7,1.23-.15.09-.18,0-.38.16s0,.47-.26.55c.18.48-.63,1-.66,1.57,0-.08-.24.14-.25,0-.09.34-.14.71-.52.87a.85.85,0,0,1-.07.43.25.25,0,0,0-.2,0c.07.12-.11.44-.13.24a1.6,1.6,0,0,1-.46.82c.17,0,.1.17,0,.39-.07,0,0-.11,0-.19-.22.26-.32.59-.53.85,0-.32.2-.28.07-.51a1.45,1.45,0,0,0-.33.51c-.08,0,0-.17,0-.28s.45-.3.39-.62c-.1.28-.29,0-.38.3-.19,0-.07-.25,0-.47.13-.06.12.13.18.2.22-.17.1-.35.08-.51s.17-.42.39-.54c-.27.41,0,.45-.21.74.06.18.27-.34.19.12,0,.29-.17-.17-.19.12s0,.08.25,0a.51.51,0,0,1-.13.24c.26-.18.51-1.06.86-1.45-.25,0,.09-.24-.05-.35a2.71,2.71,0,0,0-.34.9c-.5-.13.17-1,.22-1.37.4-.34.33.17.64,0-.2-.15.27-.35.19-.67-.07.21-.42.68-.51.39.39-.2.06-.37.45-.74.23-.18.16.18.38,0v-.39c-.09.06-.18.12-.19,0a15.09,15.09,0,0,1,.72-1.76c-.25.08-.23.33-.39.47.08-.4.31-1,.64-1a.73.73,0,0,0-.13.56c.09.14.2-.26.26-.08.16-.4.08-.87.5-1-.05-.22.1-.31.19-.44s0-.19-.12-.16c.34-.37.51-1.25.88-1.34.12-.27.21-.56.31-.84a.27.27,0,0,1,.13.16c.18-.19,0-.23,0-.39.24-.18.27,0,.32.19.2-.24.3-.62.56-.61-.08-.15-.33,0-.32-.35-.29.32.21.31-.18.68-.16,0-.19-.14-.13-.39.17-.5.72-.77.86-1.29.27-.06,0,.26,0,.48.2-.15.19-.41.25-.64a.21.21,0,0,0-.19,0c0-.18.18-.17.06-.27.3-.27.14-.8.61-1-.13-.12.1-.64.3-.6-.18-.36.11-.92.4-1.24,0-.14-.06-.1-.07-.2.27-.25.34-.66.56-.53l0-.55c.31-.35.15.24.38.06a1.23,1.23,0,0,1,.35-.81c-.09-.09-.08-.41-.15-.54.21-.1.12.43.39.22-.32-.18.07-1,.38-1.25.09-.35-.13-.42.1-.72.11.08.13.38.25,0,.13,0,.15.21.15.46,0,0,.06-.07.06-.12l.12-.09c0-.24-.15-.14-.15-.38s.3-.18.55-.47c0-.29.27-.42.29-.69a.8.8,0,0,0-.41.7c-.08,0-.22.06-.38.18.16-.25,0-.29.3-.53.06-.31-.21.08-.14-.23.29-.18.5-.78.75-1.2,0-.12-.27.31-.29.46-.29-.05,0-.64.2-.89s-.18.44,0,.32,0-.31.22-.57c.15.52.37-1,.87-1.21a7.77,7.77,0,0,1,.05-1.11c.29.18.46-1,.42-1.15s.17-.14.19-.06c-.06-.15.17-.35.13-.68.33-.08.19-.43.31-.9.12-.05.13.14.31-.07.15-.86.5-1.19.72-2.05.12,0,.13.15.24-.1-.26-.15.07-.49.32-.59-.26,0-.24-.45,0-.76.21,0-.16.4,0,.4s.12-.2.23-.27c0-.13-.19,0-.09-.27.09,0,0,.22.14.15.25-.36.2-.53.07-.57.07-.33.21.11.3-.23-.18,0-.13-.33-.06-.62.24,0,.08-.2.34-.36-.14-.07,0-.38.14-.53.09,0,0,.15.14.14-.17-.19.45-1.07.07-1.08.19-.19,0-.56.17-.74s0,.25.12.5c.15-.2.16-.47.31-.67-.39-.3.14-1.07.16-1.34.12.08.05.41.06.55s-.12,0-.13-.06c-.19.24,0,.24-.06.56.2-.4.2-.52.61-.75,0-.29-.17,0-.21-.17.39-.27.7-1.85,1-2.37,0-.09.06-.58-.12-.42,0-.39.38-.56.1-.69.16-.15.17.1.27.12s-.13.18-.22.27c.06.26.27-.06.18.37.12-.32,0-.41.08-.85a.19.19,0,0,0,.18-.06c0-.26-.13.09-.26,0s.2-.35.11-.61a22.42,22.42,0,0,0-1.29,2.82c-.17.24-.07-.22-.25,0s0,.2.05.39c-.24.19-.21-.28-.26-.56.22-.53.74-1,.78-1.78.06-.2.27-.32.31-.53-.22.12-.17.07,0-.28,0-.25-.14-.06-.16-.21.44-.37.28-.56.44-1,.14-.15.15,0,.3-.17-.16,0-.19-.27,0-.51s0,.38.21.09a.23.23,0,0,1,.09-.26.33.33,0,0,1-.1-.26,5.13,5.13,0,0,1,.72-1.15c-.26-.23.21-.4.14-.75.17-.07-.05.26.06.39a1.92,1.92,0,0,1,.28-.68c0-.14-.13-.35,0-.44-.21,0-.16-.06-.2-.45-.13.51-.42.62-.41,1.07-.24.17-.07-.21-.26,0,0,.3.11.36.24.32,0,.17-.09.3-.05.49-.23-.08-.26.37-.29.61-.2.1,0-.33-.2-.45-.11.23-.05.26,0,.44a1,1,0,0,0-.43.54c.09,0,.1.29.13.5-.14,0-.22-.11-.43.1,0,.21-.14.33-.19.51-.05-.11-.19,0-.26,0a10,10,0,0,1-.81,2c.08.47-.37.71-.35,1.16-.6.51-.42,1.7-1,1.95.08.18-.06.27,0,.44-.19.11-.26.27-.4.41,0-.3.24-.44,0-.64.14.19.15-.12.28-.31-.08-.22-.14,0-.23.18-.05-.36.16-.61.27-.9.12-.08,0,.33-.07.4.21,0,.28-.75.44-1-.18.09-.08.3-.27.39a5.5,5.5,0,0,0,.33-1.39c.15-.15,0,.48.22.17l0-.31a3.12,3.12,0,0,0,.48-1.62c.06.45.23-.17.38-.48-.07-.08-.1-.27-.19,0-.1-.54.32-.44.25-.9.17-.14.24,0,.33.07a.55.55,0,0,0-.07-.55c0-.29.5-.66.26-.83,0-.11.28-.5.32-.37a2.53,2.53,0,0,1,.46-1.54,1.18,1.18,0,0,0,0,.67l.42-.55c0-.2-.31.09-.15-.14-.14-.18-.09.29-.13.38-.24,0-.14-.84.22-1.07.16-.41-.15-1,.23-1.35l0-.3c.14-.19.13.06.21.08.14-.23,0-.59.18-.79s0,.28.07.39a3.23,3.23,0,0,1,.64-1.83,1.16,1.16,0,0,0,.07-.7c-.11.13-.18.15-.2,0,.26-.19.25-1,.6-1.34,0,.18.08.36,0,.48.16-.08.38-.76.51-1.09-.08-.36-.07.22-.28.25,0-.26.13-.43.07-.69-.07,0-.13,0-.15-.13-.15.13-.09.23-.22.2a.87.87,0,0,0,0-.28c.36-.23.32-.35.56-.71.11.27-.23.38-.12.66.18-.1.13-.28.31-.38-.18.08-.11-.55,0-.8.07,0,.07.1.1.18.22-.1.12-.33.3-.46,0-.13-.2.13-.25,0,0-.49.32-.87.37-1.35-.18-.07-.07.33-.22.48s-.07,0-.13,0c.17-.3.06-.44.1-.82-.21-.06-.24.28-.1.46-.19.26-.13-.36-.25.05C195.3,21.58,195.4,21.13,195.13,21.38ZM185,44.51c.05.29-.19.45-.31.65A.9.9,0,0,1,185,44.51Zm-9.54,17.7c-.05-.26.27-.6-.08-.42a2.23,2.23,0,0,1,.53-1c.05.24,0,.22.08.5-.09.07-.23.12-.24.24s.11,0,.13.07C175.69,61.8,175.76,62.12,175.44,62.21ZM78.86,175.8c-.17.2-.06.32-.39.3C78.42,176,78.65,175.76,78.86,175.8Zm1.92,3.54a1.82,1.82,0,0,0-.63.69c-.2-.09-.32.06-.43.23a1,1,0,0,1-.51-.18c-.27.29,0,.32.16.42-.55.16-.64-.19-.41-.51.54.06.8-.62,1.29-.7.28.05-.21.19,0,.27C80.37,179.38,80.72,179.2,80.78,179.34Zm36-23.34c.14-.26.43-.27.6-.48A.87.87,0,0,1,116.79,156Zm16.46-14.21c.17,0,.5-.32.53-.11C133.53,141.67,133.24,142.11,133.25,141.79Zm11.85-11.4c-.15.11-.19.34-.44.34C144.68,130.54,145.05,130.22,145.1,130.39Zm51.48-80.94a1.9,1.9,0,0,1,.44-.78C196.91,48.9,196.75,49.51,196.58,49.45Zm-4.45,4.32c-.14-.1.37-1.2.51-.9C192.33,53.1,192.44,53.55,192.13,53.77Zm9.15-22.38c0,.09.1.08.11.27s-.11.2-.21.28C201.13,31.72,201.1,31.51,201.28,31.39ZM184.33,58.46A12.31,12.31,0,0,1,185,57.2,2.56,2.56,0,0,1,184.33,58.46Zm5.2-11.9c.09-.19.26-.72.38-.64C189.83,46.11,189.69,46.65,189.53,46.56Zm2.7-6.1s-.21-.34,0-.43S192.35,40.41,192.23,40.46ZM195,23.77c.08-.12,0-.09-.05-.24.28-.1,0-.42.28-.53C195.38,23.28,195.15,23.81,195,23.77Zm-3.83,8.58c.05-.17,0-.39.17-.5A.44.44,0,0,1,191.2,32.35Zm-4.28,8.11c-.12-.08,0-.47.24-.62C187.22,40.11,187.06,40.28,186.92,40.46Zm-.73,1.77c0-.25.26-.75.42-.68C186.43,41.76,186.47,42.07,186.19,42.23Zm11.88-9.94a10.91,10.91,0,0,1-.45,1.29A1.89,1.89,0,0,1,198.07,32.29ZM181.7,46.49c-.13-.1.05-.52.25-.68A.62.62,0,0,1,181.7,46.49Zm7.89-6.12c.09-.21.06-.47.25-.62C189.87,40,189.75,40.48,189.59,40.37Zm9.1-7.82c.13,0,.12-.52.27-.33C198.86,32.38,198.82,32.82,198.69,32.55Zm-.06.49c-.24,0-.11.19-.26.41,0-.13-.16.1-.19,0,.12-.31.22-.17.18-.52l.17-.15C198.56,32.87,198.63,32.86,198.63,33Zm-.87,1c.05-.22,0-.49.22-.64A.53.53,0,0,1,197.76,34.08Zm-6.4,6.66a.66.66,0,0,1-.07.4c0-.33-.4-.29-.15-.65C191.34,40.45,191.17,40.91,191.36,40.74Zm5.81-4.61,0-.32.17-.15C197.38,35.87,197.24,36,197.17,36.13Zm3.46-3.07c.28,0,.08-.27.25-.49C201.12,32.62,200.68,33.56,200.63,33.06Zm-9.74,9.09c-.3.34-.17,1-.57,1.06.19.13,0,.56-.17.74.19-.63-.09-.63,0-1.27.37-.12.05-.24.35-.28.07-.34.17-1,.38-1.08-.05,0-.15.4,0,.28a1.09,1.09,0,0,1,.31-.6c.06.23-.09.35-.26.47C190.9,41.71,190.71,42.05,190.89,42.15ZM184.11,47c-.17-.09,0-.42.12-.6C184.37,46.49,184.26,46.86,184.11,47Zm7.8-6-.24.19a.42.42,0,0,1,.08-.41C191.71,41.08,192,40.67,191.91,41Zm7.62-5.77c-.08-.27.3-.33.17-.6.17-.17.24.12.36-.23C200.15,34.93,199.7,34.83,199.53,35.21Zm-3.31,3c0-.24-.11-.49.11-.62C196.27,37.74,196.42,38,196.22,38.17Zm2.23-2c.28-.15.3.61.06.85-.13-.06-.16-.28-.12-.43C198.57,36.64,198.54,36.35,198.45,36.16Zm-9.64,9.6c.18.07.16-.22.08-.4.08-.16.14-.21.24-.19,0-.51.44-.83.43-1.35.16-.16.29.16.23-.27.18-.17.45,0,.22.26,0-.09,0-.18-.14-.07.37.23,0,.9-.11,1.36l-.29.23c-.09.26,0,.6-.24.78-.17-.21,0-.8.2-1.09-.07,0,0-.06,0-.16-.1.21-.33.35-.39.56.06.4.08.78-.22,1C189,45.93,188.82,46,188.81,45.76Zm7.34-7.1c0,.15.2-.11.21.09-.2.06,0,.3-.21.36,0-.25-.18-.24-.2-.54l.17-.15ZM178.81,52.42c-.15,0-.1-.43.09-.47C178.88,52.12,179,52.36,178.81,52.42Zm3.47-1.74c-.16-.26.41-.76.27-.53S182.49,50.56,182.28,50.68Zm15.4-12.17-.05-.32c.07,0,.17-.15.19-.07S197.93,38.34,197.68,38.51ZM196,40.62c0-.15-.08-.14-.2,0l-.05-.4a6,6,0,0,1,.38-.5A9.06,9.06,0,0,0,196,40.62Zm1.67-1.95c.05.17.17.16.28.2-.11.1,0,.28-.21.36-.05-.63-.29.41-.43.18.2-.21.2-.91.47-.84Zm-2.58,2.88c.28,0,.17-.41.37-.65C195.74,41.2,195.31,41.85,195.12,41.55Zm-.27.48c-.12.22-.24,0-.24.19s.18,0,.22.18l-.24.19c0-.12,0-.28-.14-.14,0-.19-.06-.38.07-.49,0,.09,0,.17.14.06,0-.27-.11-.14-.11-.35C194.79,41.43,194.75,41.91,194.85,42Zm-1.57,1.37a.83.83,0,0,1,.35-.81A1.2,1.2,0,0,1,193.28,43.4Zm4.09-3.75c0,.36-.36.59-.39,1a1.6,1.6,0,0,1,.21-.88C197.21,39.8,197.29,39.73,197.37,39.65Zm-8.83,7.84,0-.31a.37.37,0,0,0,.2-.5l.18-.14A2.36,2.36,0,0,1,188.54,47.49Zm8-6.54c.15-.16.14-.39.32-.54C197,40.62,196.71,41.07,196.58,41ZM180.73,53.58c.05-.36.35-.61.43-1C181.33,52.84,180.94,53.32,180.73,53.58ZM198.06,40c.09,0,.11.19.16.3a1.36,1.36,0,0,1-.19.52c-.13,0-.19-.12-.28-.2a1.58,1.58,0,0,1-.13,1c-.34.16-.4.43-.68.82-.1-.27.31-.9.49-1.29-.1.09-.15.07-.19,0,.14-.38.24-.47.29-.24.07-.32.29-1.29.72-1.41C198,39.71,198.19,39.68,198.06,40Zm-2.89,2.68c-.13-.17-.18-.33.06-.65C195.06,42.4,195.37,42.22,195.17,42.63Zm2.14-2c-.1.13-.12.3-.26.41C197,40.84,197.23,40.42,197.31,40.67Zm-9.13,7.69a.47.47,0,0,0-.1.33l-.3.23c0,.49-.2.52-.29,1,0-.16-.17,0-.15-.22a1.09,1.09,0,0,0,.32-.74c-.15,0-.27,0-.28-.29a2.28,2.28,0,0,1,.41-.48c0,.24-.14.39-.07.64C187.9,48.84,188,48.34,188.18,48.36Zm-.24.11a.59.59,0,0,1,.32-.59C188.25,48.12,188.06,48.28,187.94,48.47Zm8.47-6.25c-.18.26-.07-.22-.25,0a.6.6,0,0,1,.2-.52C196.45,41.78,196.48,42.05,196.41,42.22ZM178.66,55.68c0-.2,0-.41.15-.51A.61.61,0,0,1,178.66,55.68ZM196.83,42c-.11.11-.14,0-.24.11a.4.4,0,0,1,.21-.43Zm-4.76,4.47c-.1.09-.19.13-.25.11.08-.29.1-.6.37-.8C192.26,46,192,46.14,192.07,46.43Zm4-3.52c-.26.28-.21.71-.46,1,.16-.33,0-.78.33-1C196,43,196.08,42.83,196.1,42.91Zm-1.34,1.19,0,.31c-.11,0-.25.16-.31.08C194.67,44.41,194.58,44.18,194.76,44.1Zm1.84-1.34c.06.12.34-.34.32,0s-.14-.07-.36.21l0-.4c.1,0,.21-.43.29-.24S196.65,42.61,196.6,42.76ZM187,50.56c.19-.23,0-.3.21-.57C187.31,50.21,187.19,50.71,187,50.56Zm7-4.79a2.44,2.44,0,0,1,.24-.72C194.3,45.36,194.11,45.55,194,45.77ZM177.28,58.14c0-.17,0-.35.17-.43S177.5,58.06,177.28,58.14Zm15.26-10.8c.14-.21.17-.47.39-.65C193,47,192.65,47.41,192.54,47.34Zm-6.09,4.58a5.06,5.06,0,0,1-.44.83C186,52.42,186.25,51.66,186.45,51.92Zm10-6.27c0-.31-.05,0-.19.07-.07-.22.19-.27.15-.47-.27.13-.28.38-.46.55s-.4.16-.21-.18c.08.2.14-.22.3-.24-.11-.35.23-.49.23-.8a.76.76,0,0,0,.45-.54c0-.13-.17.08-.19,0,.4-.48.42-.09.61.28-.12.12-.13,0-.2,0s-.16.18-.16.3c.1-.09.19-.13.25-.11,0,.28-.17.4,0,.4-.06.15-.08.32-.28.4,0-.12.07-.27,0-.24A3.21,3.21,0,0,1,196.47,45.65ZM194.56,47c.12.06,0,.26,0,.45-.25,0-.26.44-.45.7-.08-.39-.11.27-.36.28,0-.31.3-.51.38-.81,0-.59-.44-.63-.11-1.11C194,47,194.2,47.57,194.56,47ZM176.49,60.25c-.1,0,0-.39-.19-.19-.06.38.11.28.14.46s-.13.18-.24.24c-.16-.31-.1-.58-.23-.88a2.22,2.22,0,0,0,.79-.76A2.12,2.12,0,0,1,176.49,60.25Zm9.3-6.86a.54.54,0,0,1,.16-.6A2.78,2.78,0,0,1,185.79,53.39Zm11.63-9c0-.15-.2.1-.21-.09S197.59,44.07,197.42,44.35ZM193.63,48l-.06-.64c.07-.06.07-.17.17-.22S193.84,47.76,193.63,48Zm-8.12,5.83c-.15.12-.18.28-.25.09.12-.08.06-.27.23-.33ZM190.06,51c-.3.26-.15-.37,0-.52C190.15,50.65,190,50.75,190.06,51ZM196,46c-.05.13-.29.32-.31.08C195.83,46,196,45.87,196,46Zm-10.46,8.28s0-.09-.07,0a.41.41,0,0,1-.1.33.82.82,0,0,1,.21-.65C185.58,54.08,185.62,54.23,185.54,54.32Zm.71.14c.21-.14.06-.47.28-.61C186.56,54.08,186.4,54.59,186.25,54.46Zm12.64-9.58c-.1-.18-.17.24,0,.21-.14.14-.19,0-.26,0,.15-.28,0-.26.25-.65A.56.56,0,0,1,198.89,44.88Zm-24.6,19.24c0-.22.15-.32.24-.47A.39.39,0,0,1,174.29,64.12Zm14-9.34a.4.4,0,0,1,.23-.42A.39.39,0,0,1,188.31,54.78Zm-5.37,3.92c-.23.22-.25-.21,0-.32C182.93,58.6,183,58.47,182.94,58.7Zm4.73-3c0,.35-.3.91-.52.88.31-.17.21-.55.33-.82C187.53,56,187.57,55.63,187.67,55.74ZM172.58,67a1.35,1.35,0,0,1,.44-.73C173,66.54,172.79,67,172.58,67ZM196,50.33c.11-.11.31-.55.42-.41S196.1,50.47,196,50.33Zm-4.13,4.39c-.26.12-.27.37-.48.52,0-.29.27-.42.14-.77.15-.08.12-.25.3-.31A1.44,1.44,0,0,0,191.88,54.72Zm-8.69,6.49c-.21.18-.35.22-.32-.1s.32-.14.42-.46C183.37,60.9,183.15,61,183.19,61.21Zm10.61-6.43a1.18,1.18,0,0,1,.13-.78C193.94,54.29,194,54.61,193.8,54.78Zm-5.45,3.79a.4.4,0,0,1,.23-.42A.39.39,0,0,1,188.35,58.57Zm2.09-1.2a.81.81,0,0,1,.28-.71A1.54,1.54,0,0,1,190.44,57.37Zm-1.32,1.31c-.28.26-.26.68-.47,1-.14-.34.14-.67.33-1.14,0-.1-.1-.1.05-.21A.45.45,0,0,1,189.12,58.68Zm-4.86,4a2,2,0,0,1,.35-1A1.86,1.86,0,0,1,184.26,62.66Zm9.19-6.27a1.42,1.42,0,0,1,.17-.54c0,.18.23.08.27.3C193.68,56.38,193.65,56.21,193.45,56.39Zm.32-1.08c.21,0,.2-.21.42-.4-.16.45.06,1-.31,1.08C194,55.6,193.83,55.56,193.77,55.31Zm-.64,1c.19-.06.21-.6.36-.43a1.2,1.2,0,0,1-.41.64c0-.15-.07-.14-.2,0a1.24,1.24,0,0,1,.22-.66C193.13,56,193,56.35,193.13,56.3Zm-3.9,3.37c.14-.13.1-.36.3-.46C189.57,59.4,189.29,59.8,189.23,59.67Zm.35-.75c0,.23.24-.11.2.19C189.59,59.35,189.42,59.14,189.58,58.92ZM188.29,60c0,.23-.08.38-.11.57-.21.09-.26.27-.36.42.06-.3,0-.18,0-.48.18,0,.27-.09.24-.41C188.14,60,188.23,60,188.29,60Zm-9.51,7c-.05-.25.14-.47,0-.55l.13-.08s0-.1.06-.12A.7.7,0,0,1,178.78,67Zm-8.57,4.8c-.13.12-.13.3-.26.22C169.91,71.81,170.2,71.6,170.21,71.82ZM193,57a1.33,1.33,0,0,1,.35-.51C193.5,56.68,193.07,57,193,57Zm-12.5,9.4a1.32,1.32,0,0,1,.37-.72A1.15,1.15,0,0,1,180.54,66.35Zm11.16-7.06c.1-.11,0-.1,0-.24.15-.25.36-.17.35-.6-.1-.08-.25.33-.31.07.11-.25.24-.37.42-.4C192.18,58.56,192,59.27,191.7,59.29Zm-9.08,5.94c-.17.23-.12.6-.43.76,0-.29.15-.48.18-.75C182.51,65.12,182.6,65.1,182.62,65.23ZM187.86,62a.78.78,0,0,1-.3.3C187.48,62.09,187.85,61.81,187.86,62Zm3.37-1.83a.23.23,0,0,0-.07-.19.77.77,0,0,1,.31-.31A.59.59,0,0,1,191.23,60.21Zm-4,3c.08-.19,0-.49.17-.61A.88.88,0,0,1,187.21,63.24Zm-1.43,1.47c0-.33.19-.31.05-.53.11-.08.2-.11.25-.09A.62.62,0,0,1,185.78,64.71Zm.73-1.32c-.26.17-.11.57-.43.7C186,63.78,186.34,63.31,186.51,63.39Zm3.92-2.52c-.09-.26.13-.34.3-.46C190.76,60.64,190.53,60.72,190.43,60.87ZM186.65,64c-.05-.23.13-.35.18-.52C187,63.58,186.86,63.91,186.65,64Zm-.1.89c0-.4.08-.54-.08-.68.11-.22.18-.09.31-.13,0,.23-.08.37-.11.56.08-.06.14-.24.19-.13a1.15,1.15,0,0,1-.56.71c0-.09-.09-.09-.07-.28C186.43,64.76,186.43,65,186.55,64.91Zm-.81.72a3.28,3.28,0,0,1,.54-1.27C186.56,64.59,186.05,65.27,185.74,65.63Zm5.79-4.39a3.83,3.83,0,0,1,.48-.92A1.56,1.56,0,0,1,191.53,61.24Zm-1.86,1.33c-.08-.07-.24-.18,0-.4C189.69,62.19,189.81,62.45,189.67,62.57Zm1,0c-.24.31,0-.33-.2-.19s0,.41-.23.5a2.17,2.17,0,0,1,.4-1C190.7,62,190.47,62.3,190.62,62.55Zm-5.51,3.34c0,.52-.51.77-.62.51C184.71,66.28,184.76,66.36,185.11,65.89Zm.39.31v-.4c.08,0,.18-.14.19,0C185.52,65.84,185.75,66.16,185.5,66.2Zm2.77-1.57c-.17.13-.17-.06-.2-.2s.08-.16.18-.21Zm1.26-.63c-.19.07-.31,0-.33-.27C189.46,63.5,189.62,63.76,189.53,64ZM186,66.1c.06.26-.27.47-.37.41C185.64,66.12,185.78,66.31,186,66.1Zm3-1a.75.75,0,0,0-.25.25c.07-.34.24-.33.11-.65.26,0,.19-.28.44-.46C189.33,64.54,189,64.72,189,65.07Zm-1.17,1.55c.41-.27.47-1.16.8-1.21C188.47,65.76,188.19,66.86,187.87,66.62Zm.18-.38c0-.15-.17,0-.13-.23.08-.08.11-.2.24-.25C188.08,66.06,188.24,66,188.05,66.24Zm-1,2.22c-.2.07-.12.3-.32.38a.85.85,0,0,1,.19-.53C187,68.41,187,68.37,187.07,68.46Zm-5,4.21c.1-.22.28-.92.45-.6C182.32,72.17,182.24,72.77,182.11,72.67Zm-6.61,4c-.24.22-.25-.23-.05-.35C175.42,76.5,175.56,76.4,175.5,76.65Zm6.86-4.06c0-.2.14-.29.26-.4,0,.19.2.3.06.44C182.62,72.52,182.46,72.62,182.36,72.59Zm.19.36c-.25.25-.33-.16-.12-.32C182.5,72.68,182.61,72.66,182.55,73Zm2.82-1.58c-.28.07-.14.4-.39.49a3,3,0,0,1,.39-1Zm-2.56,1.73v-.32l.19-.12C183.05,72.88,182.9,73,182.81,73.1Zm-1.22.7c0,.4-.25.2-.45.52C181.2,74.08,181.46,73.74,181.59,73.8Zm-.58.68-.26.16c0-.2.15-.65.26-.48C180.85,74.27,181,74.44,181,74.48Zm-6.51,4.08c.05-.15.21-.23.33-.34a13.18,13.18,0,0,1-1.49,2.4c-.09-.39.38-.4.34-.74-.16.1-.21.26-.25.07.14-.26.21-.06.45-.26,0-.36.38-.45.35-.82-.12.14-.17.31-.4.38,0-.17.13-.24.08-.43.17-.18.22.21.33-.11s-.25.09-.19-.2a.67.67,0,0,1,.27-.31C174.4,78.28,174.36,78.58,174.5,78.56ZM182,74.07c-.33.17-.34.55-.59.76,0-.23-.26-.09-.12-.47s.21,0,.32,0a1.84,1.84,0,0,0,.2-.6C182.05,73.63,182.05,73.84,182,74.07Zm2.49-1.36c0-.26,0-.55.19-.68C184.67,72.26,184.74,72.57,184.53,72.71Zm-5,2.92v-.32l.2-.12C179.74,75.39,179.7,75.55,179.53,75.63Zm-.25,2.27a.44.44,0,0,1-.2.28c.08-.54.6-.51.79-.71v-.4a2.82,2.82,0,0,0,.85-1.32.7.7,0,0,1-.11-.56c.26.13,0-.27.32-.43a3.69,3.69,0,0,0,0,1.19c-.49.22-.55,1.1-.8,1.6,0-.09.09-.46-.05-.36,0,.28-.19.47-.22.76.08-.06.16-.23.2-.12-.23.15-.33.82-.53.71.25-.24.26-.84-.05-.68.21.18-.35.88-.47.83C179.13,78.48,179.59,77.9,179.28,77.9Zm.18.44c.07,0,0,.36-.08.52,0-.17-.18.25-.33.28A1.8,1.8,0,0,1,179.46,78.34Zm5-5.66a3,3,0,0,1-.51.89C184,73.24,184.24,72.66,184.46,72.68ZM182,74.47c.1-.1.06-.28.26-.32C182.41,74.34,182.05,74.63,182,74.47Zm-.72,1.08c0-.2.19-.68.33-.52C181.49,75.18,181.46,75.41,181.31,75.55Zm2.38-1.41c-.09-.06,0-.42.2-.53A.74.74,0,0,1,183.69,74.14Zm-10.82,7c-.11-.14.18-.36-.05-.43C173.08,80.52,173.07,81.08,172.87,81.19Zm-.35.66c-.13-.09.08-.36,0-.63l.2-.11C172.72,81.39,172.74,81.7,172.52,81.85Zm7.87-4.7c.05-.16.18-.68.33-.52C180.58,76.79,180.58,77,180.39,77.15Zm1.6-.52a.39.39,0,0,1,.2-.44C182.2,76.39,182.16,76.55,182,76.63Zm-3.33,2.74c-.1.15-.16.32-.27.47,0-.26-.11-.34.09-.59C178.48,79.39,178.69,79.17,178.66,79.37Zm-1,1.06a.68.68,0,0,0-.27.23V80.5s-.08,0-.06,0c.33-.23-.09-.17,0-.36s.13-.29.33-.35C177.58,80.1,177.68,80.17,177.67,80.43Zm1-.34c-.1,0-.24.17-.26.08.22-.24.19-.64.54-.8C178.84,79.74,178.61,79.82,178.64,80.09ZM159.06,90.75c-.21.14-.2-.06-.17-.29a.58.58,0,0,0,.21-.17C159.18,90.34,159.16,90.61,159.06,90.75Zm12-6.24a.81.81,0,0,1-.41.53c0-.25-.23-.42.1-.66C170.77,84.63,170.8,84.82,171.06,84.51Zm5.72-2.79c.13-.23.27-.21.33-.11.09-.51.58-1.19.94-1.25a2.92,2.92,0,0,0-.76,1.45c0-.13-.17-.11-.32,0,.12.12.12.14,0,.4-.12.1-.12,0-.18,0,.09.23,0,.16-.15.39.23-.08,0,.3-.14.4-.11-.07.07-.3,0-.56C176.77,82,176.88,82,176.78,81.72ZM182.05,79c-.31.23-.13.65-.22.84-.3.15-.07-.21-.17-.44.19,0,.12-.25.14-.41S182,78.83,182.05,79Zm-4.64,3a7.25,7.25,0,0,0-.54.7,1.61,1.61,0,0,1,.22-.59C177.07,82.23,177.39,81.62,177.41,82Zm2.92-1.18c-.09,0-.1-.41.08-.52C180.37,80.44,180.47,80.7,180.33,80.8Zm.83,0c0-.22.12-.3.08-.52-.16.11-.21.27-.26.08.15-.16.36-.7.53-.56A1.53,1.53,0,0,1,181.16,80.85Zm-4.89,2.33c-.21,0-.21.55-.33.34C176,83.34,176.19,82.88,176.27,83.18Zm1.87-.46c.09-.27.25-.49.35-.76C178.57,82,178.3,82.8,178.14,82.72Zm2.43-1.43a.33.33,0,0,0-.06-.21c.14-.1.36-.57.46-.43C180.76,80.81,180.83,81.15,180.57,81.29Zm-5.69,4.37a10.91,10.91,0,0,1,.71-1.48c-.13,0-.28.13-.25-.09.3.11.21-.2.53-.45,0,.3-.11.47.16.52C175.46,84.32,175.34,85.19,174.88,85.66Zm-18.16,8.63c.17-.15.11-.46.37-.54C157,93.93,156.84,94.43,156.72,94.29ZM168.6,88.6a.28.28,0,0,0-.22.34c-.32.1-.17-.65.13-.89C168.43,88.47,168.45,88.46,168.6,88.6Zm11.21-6.16a6.48,6.48,0,0,1,.63-1.08v.24C180.17,81.85,180.07,82.19,179.81,82.44ZM173.27,86c.15-.23.42-.8.61-.73C173.67,85.41,173.51,86.06,173.27,86Zm1-.16c-.32.22-.39.61-.68.85a1.88,1.88,0,0,1,.7-1.08A.15.15,0,0,0,174.23,85.79ZM179.59,83c0-.13-.18.07-.18,0,.15-.12.13-.35.33-.43C179.74,82.67,179.74,82.86,179.59,83ZM178.84,84a.79.79,0,0,1,.29-.63C179,83.61,179,83.87,178.84,84Zm-4.24,2.11c-.06.43-.25.39-.54.53,0-.14,0-.24-.05-.28l.13-.07C174.23,86.52,174.38,86.39,174.6,86.13Zm5-2.41c-.22.29-.27.71-.62.91.15-.33-.11-.37,0-.64s.28.2.39-.07-.18,0-.11-.33C179.5,83.48,179.54,83.63,179.62,83.72Zm-1.27,1.12c0-.06-.07-.16,0-.35.24-.06.19-.31.4-.39v.16C178.48,84.36,178.56,84.57,178.35,84.84Zm-5,3.22c.18-.27.34-1.22.57-.93C173.59,87.35,173.68,87.85,173.34,88.06Zm-1.55,1.4A.88.88,0,0,1,172,89C172.1,89,172,89.36,171.79,89.46Zm.3.29c.28-.31.59-1.35.9-1.11C172.6,88.9,172.37,89.7,172.09,89.75Zm-2,1.48a.68.68,0,0,1,.23-.51C170.39,90.79,170.24,91.1,170.07,91.23Zm.71-.08c-.47.14-.46.62-.77.87-.07-.32.49-.86.73-1.23C170.7,91,170.85,90.9,170.78,91.15Zm0,.2c-.37.22,0,.54-.38.82.1-.39,0-.22,0-.44C170.51,91.55,170.76,91.06,170.82,91.35Zm-1.29,1.91a.73.73,0,0,1,.24-.58C169.88,92.77,169.8,93.2,169.53,93.26Zm4.7-2.24c0-.31.17-.44.3-.63C174.44,90.61,174.42,90.87,174.23,91Zm.2,0c0-.19.26-.59.34-.43C174.6,90.66,174.68,90.94,174.43,91Zm-.88.63c0-.14-.22.08-.26,0a.42.42,0,0,1,.23-.43C173.46,91.41,173.79,91.35,173.55,91.62Zm.67.4c0-.06,0-.36-.16-.37,0,.18-.18.26-.35.34.1-.35.1-.77.39-1C174,91.56,174.71,91.57,174.22,92Zm-6.57,3c-.06-.2.23-.55.29-.38C167.81,94.72,167.86,95,167.65,95Zm5.57-2.43c0-.2.05-.36.23-.43A.41.41,0,0,1,173.22,92.57Zm-4.47,2.23c-.14.29-.42.83-.64.8,0,.27-.46.54-.26.73l-.27.14c0-.23.15-.31,0-.4.29-.27.4-.43.25-.65.22-.2.15,0,.26,0l0-.4C168.52,94.88,168.42,95.23,168.75,94.8Zm-1.52,1.92c-.39.18-.06-.6.2-.7,0,.1.1.08.11.17C167.32,96.57,167.15,96.29,167.23,96.72Zm-.21.78c-.29.2-.21-.17-.21-.42.11-.06.07-.23.22-.26C167.09,97.18,166.9,97.2,167,97.5Zm-1.62.89c.06-.21.1-.43.31-.53A.59.59,0,0,1,165.4,98.39Zm-18.21,9.77c0,.17-.29.6-.39.43a.3.3,0,0,0,.14-.4C147.05,108.14,147.14,108.12,147.19,108.16Zm16.6-6.37c-.4.19,0-.84.2-.62C163.75,101.35,164,101.48,163.79,101.79ZM146.6,109c-.16.32-.51.94-.8.85.38-.28,0-.28,0-.5.26-.1.3.07.43.13C146.25,109.22,146.44,108.88,146.6,109Zm-1.27,1.57c.14-.11.17-.31.34-.4C145.87,110.32,145.31,110.9,145.33,110.59Zm20.93-7.09a.91.91,0,0,1,.39-.56C166.66,103.23,166.46,103.37,166.26,103.5Zm-.54,1.15c.12.33-.19.28-.33.45.26,0,.17.35.19.51-.32.18,0-.53-.33-.36,0,.1.07.11,0,.29s-.41.36-.41.19c.32-.24.63-1.86.88-1.23.16-.23.4-.86.62-.75C166.38,104,166,104.64,165.72,104.65Zm0,.58a2.86,2.86,0,0,1,.52-.92A1.69,1.69,0,0,1,165.76,105.23Zm-22.79,9c-.25.14-.43.85-.67.7C142.52,114.76,142.7,114.14,143,114.27Zm22.19-7.93c-.1,0-.26.14-.27,0,.29-.21.35-.35.28-.58C165.46,105.76,165.25,106.09,165.16,106.34Zm-1.09.8c-.2,0-.13.31-.37.32C163.75,107.25,164.08,106.88,164.07,107.14Zm1,.08c-.16.09-.26.1-.25,0s.19-.08.22-.18,0-.16.09-.19Zm-24.16,9.54c0-.1-.07-.11,0-.28.2,0,.24-.19.38-.26C141.18,116.46,141.1,116.69,140.87,116.76Zm21.78-7.57c0-.08-.25.19-.29.2s.09.09.1.18c-.19.31-.42.28-.38,0a7.16,7.16,0,0,1,.71-.84C162.7,109,162.72,109.09,162.65,109.19Zm-22.79,8.22.28-.09C140.13,117.59,139.74,117.71,139.86,117.41Zm21.6-6.88a.74.74,0,0,1-.41.47.73.73,0,0,1,.35-.52S161.4,110.57,161.46,110.53Zm-23.13,9.41c-.14.07-.21.21-.38.25,0-.1-.23-.14,0-.28,0,.17.15.12.21-.06a.16.16,0,0,1-.15-.16c.13,0,.14-.23.31-.24C138.18,119.77,138.48,119.62,138.33,119.94Zm22.14-7.52c-.24.19-.53.81-.71.74.16-.12.22-.35.35-.51-.13,0-.17.15-.3.2.07-.2.21-.47.1-.56A1,1,0,0,1,160.47,112.42Zm-23,8.46c0-.13-.1-.14,0-.33C137.57,120.52,137.73,120.74,137.43,120.88Zm22-7.44c-.33.16-.43,0-.49-.16a.6.6,0,0,0,.22-.16C159.19,113.33,159.56,113.08,159.45,113.44Zm-22.55,7.73c0-.19.11-.33.29-.36C137.16,121,137.08,121.14,136.9,121.17Zm22.07-7a3.44,3.44,0,0,1,.69-.87,7.06,7.06,0,0,1-.39.68c0-.06,0-.07-.12,0S159.09,114.2,159,114.22Zm-.46.34c0-.11-.13,0-.18-.08a2,2,0,0,1,.71-.94c-.06.24.11.18.05.42C158.87,114.13,158.74,114.39,158.51,114.56Zm-22.57,8c.09-.25.14-.45,0-.48.2-.06.26-.29.43-.39-.09.44.23,0,.21.22C136.27,122,136.2,122.35,135.94,122.52Zm22.58-7.31c-.14.07-.14,0-.27,0s0,.07,0,.13c-.26.18-.21,0-.15-.23.08,0,.2-.06.23-.16s-.06-.09,0-.21l.21-.09C158.44,115.08,158.45,115,158.52,115.21Zm-1,.4c-.07.24-.29.35-.43.54C157.1,115.84,157.35,115.48,157.52,115.61Zm-.73,1.39c-.11.18-.17.4-.37.51,0-.27.21-.32.3-.48-.05,0-.14,0-.13,0A.23.23,0,0,1,156.79,117Zm-1.21,1c.21-.12.25-.39.5-.47C156,117.78,155.69,118.2,155.58,118Zm0-.15a.21.21,0,0,0-.11.18c-.17.08-.26.08-.25,0s.15-.17.25-.24C155.49,117.89,155.62,117.81,155.62,117.89Zm-1.05,1.19a1.57,1.57,0,0,1,.66-.9C155.11,118.58,154.75,118.74,154.57,119.08Zm.16.44c-.1-.28.2-.59.45-.82A1.18,1.18,0,0,1,154.73,119.52Zm-1.46,1c-.09,0-.11-.06-.26,0a.92.92,0,0,1,.55-.71C153.34,120.1,153.2,120.43,153.27,120.5ZM151,124c0-.2-.15.15-.29.1s.39-.44.4-.28C151,123.85,151.1,123.89,151,124Zm-20,20.3c-.18.07-.29.23-.51.24a1.91,1.91,0,0,1,.49-.72l.23-.05C130.94,144.06,131,144,131,144.26Zm-1.85,1.32c.34,0,.46-.55.59-.24C129.54,145.38,129.2,145.78,129.13,145.58ZM102,152.3c.37-.56-.58.28-.22-.39.26,0,.22.06.47-.09C102.24,151.94,102.29,152.23,102,152.3Zm.33-.74c.09,0,.2,0,.25-.08s-.21-.27.08-.4c.08,0,0,.21.18.19-.28.22-.08.47-.37.68C102.32,151.87,102.14,151.83,102.31,151.56Zm21.77-1.42c-.1.21-.3.29-.47.41-.08-.1.18-.26.24-.51C124.08,150,123.93,150.16,124.08,150.14Zm-22.91,2.72c-.22,0-.18-.18-.29-.26.18,0,.22-.32.44-.28A4.77,4.77,0,0,0,101.17,152.86Zm21.7-1.93c.31-.15.1-.3.4-.4C123.37,150.56,122.94,151.19,122.87,150.93Zm-21.88,2a.32.32,0,0,1-.33.21.29.29,0,0,1,.14-.27C100.77,153,100.88,152.94,101,152.93Zm5.89,10.58c.27,0,.37-.38.62-.45C107.42,163.35,107,163.69,106.88,163.51Zm-.9.66a3.68,3.68,0,0,1,.89-.53A1.07,1.07,0,0,1,106,164.17Zm-.32.42.17-.28h.22C106,164.52,105.81,164.52,105.66,164.59Zm-21.79,5.5c-.25,0-.16-.2,0-.4s.67-.44,1-.82c.08,0,.22,0,.18.08A7.74,7.74,0,0,1,83.87,170.09Zm-1.63.82c-.13,0-.22-.06-.21-.15a10.11,10.11,0,0,1,1.16-.72C82.88,170.35,82.55,170.6,82.24,170.91Zm12.87.73c0-.16.37-.54.64-.59A1.71,1.71,0,0,1,95.11,171.64Zm-14.55.48c.44-.44.86-.73,1-1.13l.3,0C81.52,171.26,81.3,171.91,80.56,172.12ZM91.3,175a1,1,0,0,1-.27.26c-.39,0,.06-.43-.45-.36.21-.14.37-.42.66-.38C90.84,174.73,90.83,175,91.3,175Zm-15.3-.9c-.22,0,0-.2-.11-.28.16,0,.27-.17.47-.09C76.25,173.89,76.09,173.91,76,174.11Zm3.59,1.69c-.19,0-.21.33-.27.44-.29,0-.11-.11-.2-.15a.21.21,0,0,1-.2,0c.29-.18.57-.27.34-.44C79.41,175.63,79.57,175.7,79.59,175.8Zm3.83,2.12c.19,0,.25-.25.46-.18C83.82,178,83.38,178.1,83.42,177.92Zm-1.75.82a1.64,1.64,0,0,1,.9-.54C82.27,178.37,82,178.71,81.67,178.74Zm-1.3.49c.15-.14.29-.29.51-.22A.59.59,0,0,1,80.37,179.23Zm.39.65c-.21,0-.27,0-.25.11-.33,0,.17-.38.33-.31A.29.29,0,0,0,80.76,179.88Zm-11.84,3.56c0-.13.25-.34.44-.41C69.39,183.12,69.14,183.47,68.92,183.44Z"/><path class="cls-2" d="M184.71,74.36c0-.11-.12.15-.13,0-.05.87-.65,1.39-.87,2.15a7,7,0,0,0,1-1.66c0-.09-.11,0-.19,0C184.59,74.72,184.59,74.51,184.71,74.36Z"/><path class="cls-2" d="M190.53,26.57c-.16.18-.07.45-.14.66A.87.87,0,0,0,190.53,26.57Z"/><path class="cls-2" d="M187.39,38.13c0-.18-.07-.17-.1-.26-.07.09,0,.23,0,.35a.25.25,0,0,0-.19.07C187.16,38.5,187.26,38.26,187.39,38.13Z"/><path class="cls-2" d="M195.83,30.79c0-.28-.16.39-.34.3,0,.14.15.11.22.16C195.92,31,195.63,31,195.83,30.79Z"/><path class="cls-2" d="M192.31,34.12c0-.18-.08-.21-.2-.08.09,0,.07.2,0,.35S192.24,34.17,192.31,34.12Z"/><path class="cls-2" d="M193.4,33.71c.06,0,.09.13.19,0s-.05-.29-.11-.34,0,.29-.14.38C193.37,33.84,193.41,33.75,193.4,33.71Z"/><path class="cls-2" d="M185.22,40.62c-.24.15,0,.19,0,.31s-.11,0-.23.18a1.24,1.24,0,0,1-.32,1c0,.09.12.13.16.22a2.75,2.75,0,0,1,.47-1.31C185.24,40.83,185.34,40.67,185.22,40.62Z"/><path class="cls-2" d="M194.44,33.42a9.84,9.84,0,0,0-.5,2.13c.1-.07.13-.26.17-.15.16-.25,0-.19,0-.49.16.13.37-.94.42-.63C194.77,34.18,194.57,33.62,194.44,33.42Z"/><path class="cls-2" d="M182.82,43.32a2.69,2.69,0,0,0-.56,1.26Z"/><path class="cls-2" d="M203.13,27c-.13-.05,0-.25-.08-.48-.2.4-.08.43-.09.63S203,27.07,203.13,27Z"/><path class="cls-2" d="M193.87,35.08c-.05.25-.22.44-.15.74C194,35.66,193.82,35.33,193.87,35.08Z"/><path class="cls-2" d="M184.92,43.38c0-.19-.12,0-.14-.14-.12.12-.1.3-.14.45S184.7,43.39,184.92,43.38Z"/><path class="cls-2" d="M199.08,33c0,.07.08,0,.12,0,.05.17-.07.26,0,.44a1,1,0,0,0,.2-.8C199.24,32.84,199.3,33,199.08,33Z"/><path class="cls-2" d="M194.51,39.35c0,.36-.17.25-.3.6a1.81,1.81,0,0,1,.18.38C194.4,40,194.61,39.48,194.51,39.35Z"/><path class="cls-2" d="M181.52,50c.17,0-.08.35.1.35s0-.34.21-.41c-.16,0-.08-.37-.39-.2a.84.84,0,0,1-.15.52C181.33,50.42,181.44,50,181.52,50Z"/><path class="cls-2" d="M180.92,51c-.24.22-.12.63-.45.8,0,.26.16-.12.19,0A5.72,5.72,0,0,0,180.92,51Z"/><path class="cls-2" d="M180.51,52.35c.11-.08.13,0,.25-.09a2.09,2.09,0,0,1,.49-1c-.3-.08-.34.61-.7.74.08.29-.12.44-.34.57a3,3,0,0,0-.07.78c.09-.11.14-.22.23-.33s-.12,0-.14-.14.06-.12.05-.2.07.21.25,0S180.59,52.42,180.51,52.35Z"/><path class="cls-2" d="M200.51,41.05c0-.08-.07,0-.06.05s-.16.15-.19.07c-.07.09,0,.24,0,.37C200.36,41.39,200.41,41.21,200.51,41.05Z"/><path class="cls-2" d="M197.18,46.91c0-.15-.6.71-.54,1.11.07-.07.11-.54.22-.35C197.05,47.46,196.9,47.08,197.18,46.91Z"/><path class="cls-2" d="M195.34,49.92c-.17.24-.47.24-.45.7.29.06.33-.68.6-.47C195.54,49.83,195.29,50.24,195.34,49.92Z"/><path class="cls-2" d="M185,59.65c-.07-.2-.16.21-.24.26s.11.13,0,.23,0,.06.06,0l.13-.09c-.08,0-.11-.42,0-.23C185,59.76,184.84,59.75,185,59.65Z"/><path class="cls-2" d="M192,56.93c-.12-.06-.33.49-.47.68-.17-.17-.54.27-.68.42a1.67,1.67,0,0,0,.7,0c-.31-.22.23-.37.4-.8C191.83,57.15,191.82,57.07,192,56.93Z"/><path class="cls-2" d="M190.39,58.66c-.18,0-.39.67-.59.93,0,.25.26-.4.31-.14A1.35,1.35,0,0,1,190.39,58.66Z"/><path class="cls-2" d="M191.2,58.32c0-.3-.13,0-.12.09s-.17.05-.2,0c-.08.09-.09.21-.17.3.11-.09.36-.06,0,.24,0,.1.16-.05.25-.1A.59.59,0,0,1,191.2,58.32Z"/><path class="cls-2" d="M189.56,61.41c.08-.08.09-.21.18-.29,0-.28-.18,0-.15-.31C189.51,61,189.59,61.06,189.56,61.41Z"/><path class="cls-2" d="M189.68,65c-.11-.08,0-.1,0-.32-.19.2-.08-.22-.32.06v.24c.14-.07.29-.12.07.2C189.45,65.33,189.53,64.94,189.68,65Z"/><path class="cls-2" d="M185.15,68.21c.12-.14-.07-.08-.06,0S185,68.16,185,68c-.14.18-.05.57.13.4A.22.22,0,0,1,185.15,68.21Z"/><path class="cls-2" d="M177.53,72.77c-.07.06,0,.1,0,.08,0,.24-.35.25-.26.55.27-.1.26-.37.39-.55S177.53,72.88,177.53,72.77Z"/><path class="cls-2" d="M186.58,71.7A1,1,0,0,0,187,71c-.33.18-.42.5-.7.71.16.27-.19.61-.26,1C186.08,72.62,186.73,71.88,186.58,71.7Z"/><path class="cls-2" d="M185.93,72.36c-.19.32-.21.74-.51,1,.32.28-.59.92-.65,1.47,0,0,.17-.07.19,0,.11-.28.09-.65.45-.77a3.94,3.94,0,0,1,.58-1.18c0-.1-.16,0-.25.08C185.78,72.75,186,72.64,185.93,72.36Z"/><path class="cls-2" d="M187,72.13c-.38-.11-1.09,1.3-1.1,1.69C186.25,73.26,186.54,72.34,187,72.13Z"/><path class="cls-2" d="M184.22,76.5a7.52,7.52,0,0,0-.46.69C183.89,77.27,184.14,76.73,184.22,76.5Z"/><path class="cls-2" d="M182.28,79.69a7.65,7.65,0,0,0-1.15,1.81c.32-.14.26-.52.53-.48-.2-.19.31-.47.29-.81.21-.17.12.32.32,0C182,80.18,182.1,80,182.28,79.69Z"/><path class="cls-2" d="M182.66,79.77c-.17-.1-.32.51-.47.69.05.2.17-.21.33-.2C182.5,80,182.44,80,182.66,79.77Z"/><path class="cls-2" d="M181.06,81.62a4.67,4.67,0,0,0-.82,1.19C180.74,82.87,180.9,82.05,181.06,81.62Z"/><path class="cls-2" d="M177.05,87.82a4.06,4.06,0,0,0-.36.66l.2-.11C176.84,88.12,177.07,88.05,177.05,87.82Z"/><path class="cls-2" d="M175.48,91.48l0-.48c-.23.27,0,.44-.31.71C175.21,91.89,175.39,91.52,175.48,91.48Z"/><path class="cls-2" d="M173.24,94.78c-.35-.1-.07.46-.57.53a.28.28,0,0,1,.05.21C173,95.36,173.05,95,173.24,94.78Z"/><path class="cls-2" d="M169.73,100.35c.14-.12-.06-.09-.07,0s-.11-.14-.17-.21c-.14.18-.12.48-.38.57.13.46-.27.62-.44,1s.21,0,.1.25c.14-.38.49-.61.57-1,.13-.07.14,0,.27,0C169.51,100.8,169.62,100.51,169.73,100.35Z"/><path class="cls-2" d="M163.12,109.49c-.35.19-.29.73-.66.9,0,.09.16,0,.26,0C162.73,110,163.11,109.88,163.12,109.49Z"/><path class="cls-2" d="M158.86,115.43c-.11-.09-.67.59-.59.68A3.47,3.47,0,0,1,158.86,115.43Z"/><path class="cls-2" d="M153.91,120.26c0,.15.1.2.13.32a.92.92,0,0,0,.3-.48c-.18,0-.17.22-.27.32S154.3,120,153.91,120.26Z"/><path class="cls-2" d="M136.11,140.18c-.09-.19-.4.3-.6.35,0,.07,0,.07.05.06l.15,0C135.77,140.34,136,140.31,136.11,140.18Z"/><path class="cls-2" d="M109.91,144.69a9,9,0,0,1-.91.61c0,.28-.45.47-.73.66,0,.06,0,.07,0,.14s.06,0,0,.06C108.81,145.61,109.43,145.26,109.91,144.69Z"/><path class="cls-2" d="M105,166.22c-.27.28.16.13-.11.41.07,0,.12-.07.2-.07l.09-.14C104.86,166.53,105.39,166.11,105,166.22Z"/><path class="cls-2" d="M102.27,167.67c-.43,0,.17.24-.21.35,0,.18.33,0,.35-.21C102.25,167.83,102.18,167.8,102.27,167.67Z"/><text class="cls-3" transform="translate(0 231.02) scale(0.87 1)">anapec</text></g></g></svg>