<svg xmlns="http://www.w3.org/2000/svg" viewBox="0 0 279.34 66.8"><defs><style>.cls-1{fill:#1d1d1b;}.cls-2{fill:#f6e11a;}.cls-3{fill:none;}</style></defs><g id="Layer_2" data-name="Layer 2"><g id="Layer_1-2" data-name="Layer 1"><rect class="cls-1" x="-2.32" y="20.88" width="36.25" height="14.32" rx="4.6" transform="translate(-15.38 20.06) rotate(-46.23)"/><rect class="cls-2" x="26.81" y="1.24" width="14.99" height="14.99" rx="4.49" transform="translate(52.38 39.17) rotate(-135)"/><rect class="cls-1" x="20.3" y="20.88" width="36.25" height="14.32" rx="4.6" transform="translate(-8.41 36.39) rotate(-46.23)"/><rect class="cls-2" x="12.34" y="39.96" width="14.99" height="14.99" rx="4.49" transform="translate(0.3 95.03) rotate(-135)"/><rect class="cls-1" x="21.56" y="43.49" width="36.25" height="14.32" rx="4.6" transform="translate(-24.35 44.27) rotate(-46.23)"/><rect class="cls-2" x="50.69" y="23.85" width="14.99" height="14.99" rx="4.49" transform="translate(77.16 94.66) rotate(-135)"/><path class="cls-1" d="M100.28,9a3.34,3.34,0,0,0-3.22,2.12L86.56,42.74c-1,2.83,1,2.83,0,0L76.06,11.1A3.34,3.34,0,0,0,72.84,9c-2.3,0-3.93,2-3.22,3.93L82.68,48.48a3.37,3.37,0,0,0,3.22,2.06h1.34a3.37,3.37,0,0,0,3.2-2.06l13-35.57a2.55,2.55,0,0,0,.17-.93A3.22,3.22,0,0,0,100.28,9Z"/><path class="cls-1" d="M134.47,36.12a20.75,20.75,0,0,0-1.55-8.44,11.93,11.93,0,0,0-4.53-5.38,13.15,13.15,0,0,0-7.15-1.86,16.42,16.42,0,0,0-7.59,1.63,11.09,11.09,0,0,0-4.81,4.75,15.72,15.72,0,0,0-1.65,7.51v3.36a14.3,14.3,0,0,0,1.72,7.21,11,11,0,0,0,5,4.54A18.63,18.63,0,0,0,121.82,51,17.48,17.48,0,0,0,128,49.81a18.45,18.45,0,0,0,5-2.76.66.66,0,0,0,0-1l-3.3-3a.66.66,0,0,0-.85,0,11.77,11.77,0,0,1-7,2.38,9,9,0,0,1-6.21-2,6.82,6.82,0,0,1-2.13-4.7.66.66,0,0,1,.67-.7H133.8a.66.66,0,0,0,.67-.66Zm-20.3-2.75a.67.67,0,0,1-.67-.72,7.91,7.91,0,0,1,2-4.77,7.55,7.55,0,0,1,5.77-2.18,6.27,6.27,0,0,1,4.89,2,8.83,8.83,0,0,1,2,4.9.67.67,0,0,1-.67.74Z"/><path class="cls-1" d="M144.36,20.88v5.26H156V20.88Zm8.46,24.26a1.71,1.71,0,0,1-1.42-.59,2.53,2.53,0,0,1-.49-1.66V12.25h-6.55V42.83c0,2.59.63,4.55,1.87,5.87s3.23,2,5.94,2H156V45.14Z"/><path class="cls-1" d="M182.55,44.6a9.86,9.86,0,0,1-4,.83,8.38,8.38,0,0,1-5.91-1.92,7,7,0,0,1-2.06-5.43V33.2a6.74,6.74,0,0,1,2.08-5.32A8.51,8.51,0,0,1,178.55,26a10.46,10.46,0,0,1,4,.77A10,10,0,0,1,185.83,29l4.73-3.78a10.9,10.9,0,0,0-3.06-2.57A16,16,0,0,0,183.37,21a21.46,21.46,0,0,0-4.91-.56A18.66,18.66,0,0,0,170.65,22a11,11,0,0,0-4.93,4.36A13.16,13.16,0,0,0,164,33.2v4.88a13.44,13.44,0,0,0,1.71,7,10.9,10.9,0,0,0,4.93,4.4A18.34,18.34,0,0,0,178.46,51a20.65,20.65,0,0,0,4.87-.55,15.83,15.83,0,0,0,4.14-1.58,11.7,11.7,0,0,0,3.09-2.54l-4.73-4.05A9.66,9.66,0,0,1,182.55,44.6Z"/><path class="cls-1" d="M221.35,25.52a9.88,9.88,0,0,0-4.51-3.78,17.7,17.7,0,0,0-7.11-1.3,19.88,19.88,0,0,0-6.89,1.14,12.53,12.53,0,0,0-5,3.16l4.8,2.91A12.05,12.05,0,0,1,206,26.14a14.3,14.3,0,0,1,3.91-.54,7,7,0,0,1,5,1.61,5.81,5.81,0,0,1,1.75,4.52V50.54h6.25V31.48A11.11,11.11,0,0,0,221.35,25.52Zm-6.55,20a16.71,16.71,0,0,1-5.62.71,9.53,9.53,0,0,1-5.12-1.09,3.7,3.7,0,0,1-1.68-3.34,3.68,3.68,0,0,1,1.26-3.1,6.05,6.05,0,0,1,3.84-1h9.91l-.45-4.7h-9.49c-3.78,0-6.59.74-8.46,2.21s-2.81,3.67-2.81,6.6c0,3.09,1,5.38,3.06,6.9S204.37,51,208.49,51a17.31,17.31,0,0,0,3.76-.39,10.31,10.31,0,0,0,2.94-1.15,7.05,7.05,0,0,0,1.46-1.18,5.83,5.83,0,0,0,.69-.8l-.69-4.18C216.65,44.3,216,45,214.8,45.52Z"/><path class="cls-1" d="M278,26a9.24,9.24,0,0,0-3.88-4.13A12.74,12.74,0,0,0,268,20.44a10.63,10.63,0,0,0-5.72,1.62,11.71,11.71,0,0,0-4,4.28,2.61,2.61,0,0,0-.17.28l1.33,5.7a6.29,6.29,0,0,1,1.67-4.67A6.46,6.46,0,0,1,265.79,26,7.26,7.26,0,0,1,271,27.71a6.38,6.38,0,0,1,1.82,4.86v18h6.57v-18A14.57,14.57,0,0,0,278,26Zm-19.76.35-.15-.35a9.25,9.25,0,0,0-3.78-4.13,12,12,0,0,0-6-1.42A10.77,10.77,0,0,0,239.44,25c-.23.33-.47.7-.68,1.06l.68,5.71a5.31,5.31,0,0,1,1.76-4.26,7.38,7.38,0,0,1,5-1.51,6.66,6.66,0,0,1,4.91,1.72,6.49,6.49,0,0,1,1.74,4.86v18h6.57V32.32A14.93,14.93,0,0,0,258.23,26.34Zm-25.36-5.46V50.54h6.57V20.88Z"/><line class="cls-3" x1="113.5" y1="32.44" x2="113.42" y2="39.61"/><line class="cls-3" x1="116.73" y1="34.89" x2="116.74" y2="34.91"/></g></g></svg>