<svg xmlns="http://www.w3.org/2000/svg" viewBox="0 0 397.29 173.06"><defs><style>.cls-1{fill:#0091d4;}</style></defs><g id="Layer_2" data-name="Layer 2"><g id="svg2"><path class="cls-1" d="M379.2,107.7q-6.78-4.76-8.8-7.14a8.09,8.09,0,0,1-2.14-4.88,9.55,9.55,0,0,1,2-6.48,8,8,0,0,1,6.07-2.91,8.63,8.63,0,0,1,6.37,2.38,8.77,8.77,0,0,1,2.91,7.25h11.66a20.33,20.33,0,0,0-20.94-20.58,19,19,0,0,0-14.28,6.13A20.15,20.15,0,0,0,356.6,96c0,3.17,1.31,6.57,3.93,10.17s6.78,7.24,12.49,10.89q7.5,4.75,10.29,9.1a16.48,16.48,0,0,1,2.92,8.27A11.79,11.79,0,0,1,383,143a10.32,10.32,0,0,1-7.85,3.63,10.1,10.1,0,0,1-8-3.69q-3.15-3.69-3.15-10H353a25.58,25.58,0,0,0,6.48,17.55,20.42,20.42,0,0,0,15.89,7.32q10.23,0,16.06-7.2a25.65,25.65,0,0,0,5.83-16.6A24.52,24.52,0,0,0,393,120.31q-4.23-6.18-13.75-12.61Zm-49.05,48.66h11.19V102.6H330.15v53.76ZM241.38,86.52A9.57,9.57,0,0,1,248.16,89a8.86,8.86,0,0,1,2.74,6.49h11.54A21,21,0,0,0,256.13,81a19.89,19.89,0,0,0-14.39-5.65,20.35,20.35,0,0,0-2.36.14V12h14.51V1.31H213.32V12h14.52V81.08h0a29,29,0,0,0-3,3.3q-7,9-7,32.24t7,32.25q5,6.52,11.58,8.33L230,173v0h10.85l5.42-15.61a19.35,19.35,0,0,0,9.85-5.19,21,21,0,0,0,6.31-14.46H250.9a8.86,8.86,0,0,1-2.74,6.49,9.57,9.57,0,0,1-6.78,2.43q-4.65.24-8.27-5.23t-3.63-24.87q0-18.56,3.57-24.33t8.33-5.77Zm-46.71,40.1-21.77-50h-9.65V12h14.51V1.31H137.2V12h14.51V76.65h9.77v79.71H172.9V105.68l22.25,50.68h11.06V76.65H194.67v50Zm-62.87-3.21-5.83-23-5.6,23Zm0-46.76,19.87,79.71H140.12l-5.59-21.77h-17l-5.35,21.77H100.74L120.29,78a20.15,20.15,0,0,1-13.41,4.5A20.44,20.44,0,0,1,91,75.13a25.58,25.58,0,0,1-6.48-17.55H95.46c0,4.21,1,7.54,3.15,10a10.05,10.05,0,0,0,8,3.69,10.32,10.32,0,0,0,7.85-3.62,11.74,11.74,0,0,0,3.21-8.51,16.37,16.37,0,0,0-2.91-8.27q-2.81-4.34-10.29-9.1Q95.94,36.28,92,30.87T88.08,20.7A20.15,20.15,0,0,1,93.55,6.13,19,19,0,0,1,107.83,0a20.33,20.33,0,0,1,20.94,20.58H117.11a8.75,8.75,0,0,0-2.92-7.26,8.68,8.68,0,0,0-6.36-2.38,8,8,0,0,0-6.07,2.92,9.53,9.53,0,0,0-2,6.48,8.09,8.09,0,0,0,2.14,4.88q2,2.38,8.8,7.14,9.52,6.42,13.74,12.61a24.46,24.46,0,0,1,4.35,13.68,25.65,25.65,0,0,1-5.83,16.6c-.4.49-.82,1-1.25,1.4ZM82.15,97.59a9.2,9.2,0,0,0-2.86-7.14,10.67,10.67,0,0,0-7.49-2.62H60v19.63H71.8a10.32,10.32,0,0,0,7.32-2.85,9.27,9.27,0,0,0,3-7Zm-.36,19.63,11.54,39.14H81.56L71,118.88H60v37.48H48.6V76.65H60.93L40.6,30.34V87.83H11.45v20.11h16v10.94H11.45v37.48H0V76.65H29.18V1.31H40.6l21.77,50v-50H73.92v75.4a19.86,19.86,0,0,1,13.64,5.77Q93.34,88.32,93.33,98a23.53,23.53,0,0,1-3.15,11.83,15.83,15.83,0,0,1-8.39,7.44ZM356.21,1.31H315.64V12h14.51V81h11.54V12h14.52V1.31ZM298,123.41l-5.83-23-5.59,23Zm.28-45.66,19.59,78.61H306.3l-5.59-21.77h-17l-5.35,21.77H266.92l18.43-73.92h-.28a22.31,22.31,0,0,1-11.25-3.1,21.59,21.59,0,0,1-8.27-8.09q-3.09-5.46-3.09-14V1.31h11.42V58.65a13.17,13.17,0,0,0,3.1,9.16,10.29,10.29,0,0,0,8.09,3.45,9.5,9.5,0,0,0,7.61-3.51,13.58,13.58,0,0,0,3-9.1V1.31h11.54V57.23q0,8.67-3.09,14a21.87,21.87,0,0,1-5.85,6.49ZM201,1.31H189.85V55.07H201V1.31ZM11.19,55.07H0V1.31H11.19V55.07Z"/></g></g></svg>